<?plantuml 1.2026.2?>
<svg xmlns="http://www.w3.org/2000/svg" xmlns:xlink="http://www.w3.org/1999/xlink" contentStyleType="text/css" data-diagram-type="CLASS" height="1610px" preserveAspectRatio="none" style="width:2265px;height:1610px;background:#FFFFFF;" version="1.1" viewBox="0 0 2265 1610" width="2265px" zoomAndPan="magnify"><title>Component Diagram - Traffic Processor System (dev branch)</title><defs/><g><g class="title" data-source-line="6"><text fill="#000000" font-family="sans-serif" font-size="14" font-weight="bold" lengthAdjust="spacing" textLength="480.3066" x="885.3467" y="22.9951">Component Diagram - Traffic Processor System (dev branch)</text></g><!--cluster docker_host--><g class="cluster" data-qualified-name="docker_host" data-source-line="9" id="ent0002"><polygon fill="none" points="16,268.2969,26,258.2969,2248,258.2969,2248,1583.2969,2238,1593.2969,16,1593.2969,16,268.2969" style="stroke:#181818;stroke-width:1;"/><line style="stroke:#181818;stroke-width:1;" x1="2238" x2="2248" y1="268.2969" y2="258.2969"/><line style="stroke:#181818;stroke-width:1;" x1="16" x2="2238" y1="268.2969" y2="268.2969"/><line style="stroke:#181818;stroke-width:1;" x1="2238" x2="2238" y1="268.2969" y2="1593.2969"/><text fill="#000000" font-family="sans-serif" font-size="14" font-style="italic" lengthAdjust="spacing" textLength="52.2197" x="1101.8901" y="284.292">«node»</text><text fill="#000000" font-family="sans-serif" font-size="14" font-weight="bold" lengthAdjust="spacing" textLength="96.4824" x="1079.7588" y="300.5889">Docker Host</text><text fill="#000000" font-family="sans-serif" font-size="14" font-weight="bold" lengthAdjust="spacing" textLength="191.1396" x="1032.4302" y="316.8857">[Linux/Windows/macOS]</text></g><!--cluster compose--><g class="cluster" data-qualified-name="docker_host.compose" data-source-line="10" id="ent0003"><polygon fill="none" points="40,348.2969,50,338.2969,2224,338.2969,2224,1559.2969,2214,1569.2969,40,1569.2969,40,348.2969" style="stroke:#181818;stroke-width:1;"/><line style="stroke:#181818;stroke-width:1;" x1="2214" x2="2224" y1="348.2969" y2="338.2969"/><line style="stroke:#181818;stroke-width:1;" x1="40" x2="2214" y1="348.2969" y2="348.2969"/><line style="stroke:#181818;stroke-width:1;" x1="2214" x2="2214" y1="348.2969" y2="1569.2969"/><text fill="#000000" font-family="sans-serif" font-size="14" font-style="italic" lengthAdjust="spacing" textLength="52.2197" x="1101.8901" y="364.292">«node»</text><text fill="#000000" font-family="sans-serif" font-size="14" font-weight="bold" lengthAdjust="spacing" textLength="132.0703" x="1061.9648" y="380.5889">Docker Compose</text><text fill="#000000" font-family="sans-serif" font-size="14" font-weight="bold" lengthAdjust="spacing" textLength="203.6563" x="1026.1719" y="396.8857">[Orchestrates containers]</text></g><!--cluster gate--><g class="cluster" data-qualified-name="docker_host.compose.gate" data-source-line="13" id="ent0004"><rect fill="none" height="679" rx="2.5" ry="2.5" style="stroke:#181818;stroke-width:1;" width="347" x="72" y="426.2969"/><rect fill="none" height="10" style="stroke:#181818;stroke-width:1;" width="15" x="399" y="431.2969"/><rect fill="none" height="2" style="stroke:#181818;stroke-width:1;" width="4" x="397" y="433.2969"/><rect fill="none" height="2" style="stroke:#181818;stroke-width:1;" width="4" x="397" y="437.2969"/><text fill="#000000" font-family="sans-serif" font-size="14" font-style="italic" lengthAdjust="spacing" textLength="83.6172" x="203.6914" y="452.292">«container»</text><text fill="#000000" font-family="sans-serif" font-size="14" font-weight="bold" lengthAdjust="spacing" textLength="35.6563" x="227.6719" y="468.5889">gate</text><text fill="#000000" font-family="sans-serif" font-size="14" font-weight="bold" lengthAdjust="spacing" textLength="68.0449" x="211.4775" y="484.8857">[Docker]</text><text fill="#000000" font-family="sans-serif" font-size="14" font-weight="bold" lengthAdjust="spacing" textLength="244.9658" x="123.0171" y="501.1826">Reverse Proxy with IP Filtering</text></g><!--cluster tproc--><g class="cluster" data-qualified-name="docker_host.compose.tproc" data-source-line="29" id="ent0009"><rect fill="none" height="870" rx="2.5" ry="2.5" style="stroke:#181818;stroke-width:1;" width="396" x="659" y="667.2969"/><rect fill="none" height="10" style="stroke:#181818;stroke-width:1;" width="15" x="1035" y="672.2969"/><rect fill="none" height="2" style="stroke:#181818;stroke-width:1;" width="4" x="1033" y="674.2969"/><rect fill="none" height="2" style="stroke:#181818;stroke-width:1;" width="4" x="1033" y="678.2969"/><text fill="#000000" font-family="sans-serif" font-size="14" font-style="italic" lengthAdjust="spacing" textLength="83.6172" x="815.1914" y="693.292">«container»</text><text fill="#000000" font-family="sans-serif" font-size="14" font-weight="bold" lengthAdjust="spacing" textLength="41.5352" x="836.2324" y="709.5889">tproc</text><text fill="#000000" font-family="sans-serif" font-size="14" font-weight="bold" lengthAdjust="spacing" textLength="68.0449" x="822.9775" y="725.8857">[Docker]</text><text fill="#000000" font-family="sans-serif" font-size="14" font-weight="bold" lengthAdjust="spacing" textLength="380.1875" x="666.9063" y="742.1826">Traffic Processor - Packet capture and statistics</text></g><!--cluster mock_target--><g class="cluster" data-qualified-name="docker_host.compose.mock_target" data-source-line="45" id="ent0014"><rect fill="none" height="179" rx="2.5" ry="2.5" style="stroke:#181818;stroke-width:1;" width="266" x="1095" y="667.2969"/><rect fill="none" height="10" style="stroke:#181818;stroke-width:1;" width="15" x="1341" y="672.2969"/><rect fill="none" height="2" style="stroke:#181818;stroke-width:1;" width="4" x="1339" y="674.2969"/><rect fill="none" height="2" style="stroke:#181818;stroke-width:1;" width="4" x="1339" y="678.2969"/><text fill="#000000" font-family="sans-serif" font-size="14" font-style="italic" lengthAdjust="spacing" textLength="83.6172" x="1186.1914" y="693.292">«container»</text><text fill="#000000" font-family="sans-serif" font-size="14" font-weight="bold" lengthAdjust="spacing" textLength="98.0684" x="1178.9658" y="709.5889">mock_target</text><text fill="#000000" font-family="sans-serif" font-size="14" font-weight="bold" lengthAdjust="spacing" textLength="68.0449" x="1193.9775" y="725.8857">[Docker]</text><text fill="#000000" font-family="sans-serif" font-size="14" font-weight="bold" lengthAdjust="spacing" textLength="250.0039" x="1102.998" y="742.1826">Protected application (internal)</text></g><!--cluster cnss--><g class="cluster" data-qualified-name="docker_host.compose.cnss" data-source-line="58" id="ent0017"><rect fill="none" height="611" rx="2.5" ry="2.5" style="stroke:#181818;stroke-width:1;" width="737" x="1095" y="926.2969"/><rect fill="none" height="10" style="stroke:#181818;stroke-width:1;" width="15" x="1812" y="931.2969"/><rect fill="none" height="2" style="stroke:#181818;stroke-width:1;" width="4" x="1810" y="933.2969"/><rect fill="none" height="2" style="stroke:#181818;stroke-width:1;" width="4" x="1810" y="937.2969"/><text fill="#000000" font-family="sans-serif" font-size="14" font-style="italic" lengthAdjust="spacing" textLength="83.6172" x="1421.6914" y="952.292">«container»</text><text fill="#000000" font-family="sans-serif" font-size="14" font-weight="bold" lengthAdjust="spacing" textLength="34.9316" x="1446.0342" y="968.5889">cnss</text><text fill="#000000" font-family="sans-serif" font-size="14" font-weight="bold" lengthAdjust="spacing" textLength="68.0449" x="1429.4775" y="984.8857">[Docker]</text><text fill="#000000" font-family="sans-serif" font-size="14" font-weight="bold" lengthAdjust="spacing" textLength="369.9951" x="1278.5024" y="1001.1826">Control and Status Server - FastAPI + Static UI</text></g><!--cluster db--><g class="cluster" data-qualified-name="docker_host.compose.db" data-source-line="80" id="ent0024"><rect fill="none" height="179" rx="2.5" ry="2.5" style="stroke:#181818;stroke-width:1;" width="320" x="1872" y="1185.2969"/><rect fill="none" height="10" style="stroke:#181818;stroke-width:1;" width="15" x="2172" y="1190.2969"/><rect fill="none" height="2" style="stroke:#181818;stroke-width:1;" width="4" x="2170" y="1192.2969"/><rect fill="none" height="2" style="stroke:#181818;stroke-width:1;" width="4" x="2170" y="1196.2969"/><text fill="#000000" font-family="sans-serif" font-size="14" font-style="italic" lengthAdjust="spacing" textLength="83.6172" x="1990.1914" y="1211.292">«container»</text><text fill="#000000" font-family="sans-serif" font-size="14" font-weight="bold" lengthAdjust="spacing" textLength="20.043" x="2021.9785" y="1227.5889">db</text><text fill="#000000" font-family="sans-serif" font-size="14" font-weight="bold" lengthAdjust="spacing" textLength="105.0273" x="1979.4863" y="1243.8857">[PostgreSQL]</text><text fill="#000000" font-family="sans-serif" font-size="14" font-weight="bold" lengthAdjust="spacing" textLength="304.3359" x="1879.832" y="1260.1826">Persistent storage for traffic statistics</text></g><!--cluster network--><g class="cluster" data-qualified-name="network" data-source-line="89" id="ent0026"><polygon fill="none" points="204,53.2969,214,43.2969,402,43.2969,402,184.2969,392,194.2969,204,194.2969,204,53.2969" style="stroke:#181818;stroke-width:1;"/><line style="stroke:#181818;stroke-width:1;" x1="392" x2="402" y1="53.2969" y2="43.2969"/><line style="stroke:#181818;stroke-width:1;" x1="204" x2="392" y1="53.2969" y2="53.2969"/><line style="stroke:#181818;stroke-width:1;" x1="392" x2="392" y1="53.2969" y2="194.2969"/><text fill="#000000" font-family="sans-serif" font-size="14" font-style="italic" lengthAdjust="spacing" textLength="52.2197" x="272.8901" y="69.292">«node»</text><text fill="#000000" font-family="sans-serif" font-size="14" font-weight="bold" lengthAdjust="spacing" textLength="66.6709" x="265.6646" y="85.5889">Network</text><text fill="#000000" font-family="sans-serif" font-size="14" font-weight="bold" lengthAdjust="spacing" textLength="78.6953" x="259.6523" y="101.8857">[External]</text></g><!--cluster user_node--><g class="cluster" data-qualified-name="user_node" data-source-line="95" id="ent0028"><polygon fill="none" points="435,53.2969,445,43.2969,639,43.2969,639,184.2969,629,194.2969,435,194.2969,435,53.2969" style="stroke:#181818;stroke-width:1;"/><line style="stroke:#181818;stroke-width:1;" x1="629" x2="639" y1="53.2969" y2="43.2969"/><line style="stroke:#181818;stroke-width:1;" x1="435" x2="629" y1="53.2969" y2="53.2969"/><line style="stroke:#181818;stroke-width:1;" x1="629" x2="629" y1="53.2969" y2="194.2969"/><text fill="#000000" font-family="sans-serif" font-size="14" font-style="italic" lengthAdjust="spacing" textLength="52.2197" x="506.8901" y="69.292">«node»</text><text fill="#000000" font-family="sans-serif" font-size="14" font-weight="bold" lengthAdjust="spacing" textLength="128.2354" x="468.8823" y="85.5889">End User Device</text><text fill="#000000" font-family="sans-serif" font-size="14" font-weight="bold" lengthAdjust="spacing" textLength="77.6563" x="494.1719" y="101.8857">[Browser]</text></g><!--entity req_interceptor--><g class="entity" data-qualified-name="docker_host.compose.gate.req_interceptor" data-source-line="14" id="ent0005"><rect fill="#F1F1F1" height="62.5938" rx="2.5" ry="2.5" style="stroke:#181818;stroke-width:0.5;" width="179.8154" x="134" y="518.2969"/><rect fill="#F1F1F1" height="10" style="stroke:#181818;stroke-width:0.5;" width="15" x="293.8154" y="523.2969"/><rect fill="#F1F1F1" height="2" style="stroke:#181818;stroke-width:0.5;" width="4" x="291.8154" y="525.2969"/><rect fill="#F1F1F1" height="2" style="stroke:#181818;stroke-width:0.5;" width="4" x="291.8154" y="529.2969"/><text fill="#000000" font-family="sans-serif" font-size="14" font-style="italic" lengthAdjust="spacing" textLength="112.9297" x="162.4429" y="551.292">«HTTP Handler»</text><text fill="#000000" font-family="sans-serif" font-size="14" lengthAdjust="spacing" textLength="139.8154" x="149" y="567.5889">Request Interceptor</text></g><!--entity ip_filter--><g class="entity" data-qualified-name="docker_host.compose.gate.ip_filter" data-source-line="17" id="ent0006"><rect fill="#F1F1F1" height="62.5938" rx="2.5" ry="2.5" style="stroke:#181818;stroke-width:0.5;" width="145.335" x="151.5" y="759.2969"/><rect fill="#F1F1F1" height="10" style="stroke:#181818;stroke-width:0.5;" width="15" x="276.835" y="764.2969"/><rect fill="#F1F1F1" height="2" style="stroke:#181818;stroke-width:0.5;" width="4" x="274.835" y="766.2969"/><rect fill="#F1F1F1" height="2" style="stroke:#181818;stroke-width:0.5;" width="4" x="274.835" y="770.2969"/><text fill="#000000" font-family="sans-serif" font-size="14" font-style="italic" lengthAdjust="spacing" textLength="91.2803" x="173.5273" y="792.292">«Core Logic»</text><text fill="#000000" font-family="sans-serif" font-size="14" lengthAdjust="spacing" textLength="105.335" x="166.5" y="808.5889">IP Access Filter</text></g><!--entity proxy_fwd--><g class="entity" data-qualified-name="docker_host.compose.gate.proxy_fwd" data-source-line="20" id="ent0007"><rect fill="#F1F1F1" height="62.5938" rx="2.5" ry="2.5" style="stroke:#181818;stroke-width:0.5;" width="140.6865" x="96.5" y="1018.2969"/><rect fill="#F1F1F1" height="10" style="stroke:#181818;stroke-width:0.5;" width="15" x="217.1865" y="1023.2969"/><rect fill="#F1F1F1" height="2" style="stroke:#181818;stroke-width:0.5;" width="4" x="215.1865" y="1025.2969"/><rect fill="#F1F1F1" height="2" style="stroke:#181818;stroke-width:0.5;" width="4" x="215.1865" y="1029.2969"/><text fill="#000000" font-family="sans-serif" font-size="14" font-style="italic" lengthAdjust="spacing" textLength="78.1006" x="122.793" y="1051.292">«requests»</text><text fill="#000000" font-family="sans-serif" font-size="14" lengthAdjust="spacing" textLength="100.6865" x="111.5" y="1067.5889">Reverse Proxy</text></g><!--entity error_page--><g class="entity" data-qualified-name="docker_host.compose.gate.error_page" data-source-line="23" id="ent0008"><rect fill="#F1F1F1" height="62.5938" rx="2.5" ry="2.5" style="stroke:#181818;stroke-width:0.5;" width="113.6504" x="273" y="1018.2969"/><rect fill="#F1F1F1" height="10" style="stroke:#181818;stroke-width:0.5;" width="15" x="366.6504" y="1023.2969"/><rect fill="#F1F1F1" height="2" style="stroke:#181818;stroke-width:0.5;" width="4" x="364.6504" y="1025.2969"/><rect fill="#F1F1F1" height="2" style="stroke:#181818;stroke-width:0.5;" width="4" x="364.6504" y="1029.2969"/><text fill="#000000" font-family="sans-serif" font-size="14" font-style="italic" lengthAdjust="spacing" textLength="53.3545" x="298.1479" y="1051.292">«HTTP»</text><text fill="#000000" font-family="sans-serif" font-size="14" lengthAdjust="spacing" textLength="73.6504" x="288" y="1067.5889">Error Page</text></g><!--entity packet_sniffer--><g class="entity" data-qualified-name="docker_host.compose.tproc.packet_sniffer" data-source-line="30" id="ent0010"><rect fill="#F1F1F1" height="62.5938" rx="2.5" ry="2.5" style="stroke:#181818;stroke-width:0.5;" width="137.2549" x="758.5" y="759.2969"/><rect fill="#F1F1F1" height="10" style="stroke:#181818;stroke-width:0.5;" width="15" x="875.7549" y="764.2969"/><rect fill="#F1F1F1" height="2" style="stroke:#181818;stroke-width:0.5;" width="4" x="873.7549" y="766.2969"/><rect fill="#F1F1F1" height="2" style="stroke:#181818;stroke-width:0.5;" width="4" x="873.7549" y="770.2969"/><text fill="#000000" font-family="sans-serif" font-size="14" font-style="italic" lengthAdjust="spacing" textLength="59.6162" x="792.3193" y="792.292">«Scapy»</text><text fill="#000000" font-family="sans-serif" font-size="14" lengthAdjust="spacing" textLength="97.2549" x="773.5" y="808.5889">Packet Sniffer</text></g><!--entity ip_tracker--><g class="entity" data-qualified-name="docker_host.compose.tproc.ip_tracker" data-source-line="33" id="ent0011"><rect fill="#F1F1F1" height="62.5938" rx="2.5" ry="2.5" style="stroke:#181818;stroke-width:0.5;" width="133.2803" x="758.5" y="1018.2969"/><rect fill="#F1F1F1" height="10" style="stroke:#181818;stroke-width:0.5;" width="15" x="871.7803" y="1023.2969"/><rect fill="#F1F1F1" height="2" style="stroke:#181818;stroke-width:0.5;" width="4" x="869.7803" y="1025.2969"/><rect fill="#F1F1F1" height="2" style="stroke:#181818;stroke-width:0.5;" width="4" x="869.7803" y="1029.2969"/><text fill="#000000" font-family="sans-serif" font-size="14" font-style="italic" lengthAdjust="spacing" textLength="91.2803" x="774.5" y="1051.292">«Core Logic»</text><text fill="#000000" font-family="sans-serif" font-size="14" lengthAdjust="spacing" textLength="65.6318" x="787.3242" y="1067.5889">IPTracker</text></g><!--entity stats_builder--><g class="entity" data-qualified-name="docker_host.compose.tproc.stats_builder" data-source-line="36" id="ent0012"><rect fill="#F1F1F1" height="62.5938" rx="2.5" ry="2.5" style="stroke:#181818;stroke-width:0.5;" width="129.7012" x="758" y="1277.2969"/><rect fill="#F1F1F1" height="10" style="stroke:#181818;stroke-width:0.5;" width="15" x="867.7012" y="1282.2969"/><rect fill="#F1F1F1" height="2" style="stroke:#181818;stroke-width:0.5;" width="4" x="865.7012" y="1284.2969"/><rect fill="#F1F1F1" height="2" style="stroke:#181818;stroke-width:0.5;" width="4" x="865.7012" y="1288.2969"/><text fill="#000000" font-family="sans-serif" font-size="14" font-style="italic" lengthAdjust="spacing" textLength="77.4238" x="779.1387" y="1310.292">«Pydantic»</text><text fill="#000000" font-family="sans-serif" font-size="14" lengthAdjust="spacing" textLength="89.7012" x="773" y="1326.5889">Stats Builder</text></g><!--entity http_sender--><g class="entity" data-qualified-name="docker_host.compose.tproc.http_sender" data-source-line="39" id="ent0013"><rect fill="#F1F1F1" height="62.5938" rx="2.5" ry="2.5" style="stroke:#181818;stroke-width:0.5;" width="130.1523" x="758" y="1450.2969"/><rect fill="#F1F1F1" height="10" style="stroke:#181818;stroke-width:0.5;" width="15" x="868.1523" y="1455.2969"/><rect fill="#F1F1F1" height="2" style="stroke:#181818;stroke-width:0.5;" width="4" x="866.1523" y="1457.2969"/><rect fill="#F1F1F1" height="2" style="stroke:#181818;stroke-width:0.5;" width="4" x="866.1523" y="1461.2969"/><text fill="#000000" font-family="sans-serif" font-size="14" font-style="italic" lengthAdjust="spacing" textLength="78.1006" x="779.0259" y="1483.292">«requests»</text><text fill="#000000" font-family="sans-serif" font-size="14" lengthAdjust="spacing" textLength="90.1523" x="773" y="1499.5889">HTTP Sender</text></g><!--entity app_logic--><g class="entity" data-qualified-name="docker_host.compose.mock_target.app_logic" data-source-line="46" id="ent0015"><rect fill="#F1F1F1" height="62.5938" rx="2.5" ry="2.5" style="stroke:#181818;stroke-width:0.5;" width="159.5127" x="1157" y="759.2969"/><rect fill="#F1F1F1" height="10" style="stroke:#181818;stroke-width:0.5;" width="15" x="1296.5127" y="764.2969"/><rect fill="#F1F1F1" height="2" style="stroke:#181818;stroke-width:0.5;" width="4" x="1294.5127" y="766.2969"/><rect fill="#F1F1F1" height="2" style="stroke:#181818;stroke-width:0.5;" width="4" x="1294.5127" y="770.2969"/><text fill="#000000" font-family="sans-serif" font-size="14" font-style="italic" lengthAdjust="spacing" textLength="65.8096" x="1198.8516" y="792.292">«Python»</text><text fill="#000000" font-family="sans-serif" font-size="14" lengthAdjust="spacing" textLength="119.5127" x="1172" y="808.5889">Application Logic</text></g><!--entity error_server--><g class="entity" data-qualified-name="docker_host.compose.error_server" data-source-line="52" id="ent0016"><rect fill="#F1F1F1" height="95.1875" rx="2.5" ry="2.5" style="stroke:#181818;stroke-width:0.5;" width="190.6982" x="443.5" y="743.2969"/><rect fill="#F1F1F1" height="10" style="stroke:#181818;stroke-width:0.5;" width="15" x="614.1982" y="748.2969"/><rect fill="#F1F1F1" height="2" style="stroke:#181818;stroke-width:0.5;" width="4" x="612.1982" y="750.2969"/><rect fill="#F1F1F1" height="2" style="stroke:#181818;stroke-width:0.5;" width="4" x="612.1982" y="754.2969"/><text fill="#000000" font-family="sans-serif" font-size="14" font-style="italic" lengthAdjust="spacing" textLength="83.6172" x="492.0405" y="776.292">«container»</text><text fill="#000000" font-family="sans-serif" font-size="14" lengthAdjust="spacing" textLength="85.7637" x="458.5" y="792.5889">error_server</text><text fill="#000000" font-family="sans-serif" font-size="14" lengthAdjust="spacing" textLength="60.4434" x="458.5" y="808.8857">[Docker]</text><text fill="#000000" font-family="sans-serif" font-size="14" lengthAdjust="spacing" textLength="150.6982" x="458.5" y="825.1826">Blocked IP error page</text></g><!--entity api_router--><g class="entity" data-qualified-name="docker_host.compose.cnss.api_router" data-source-line="59" id="ent0018"><rect fill="#F1F1F1" height="62.5938" rx="2.5" ry="2.5" style="stroke:#181818;stroke-width:0.5;" width="113.623" x="1497" y="1018.2969"/><rect fill="#F1F1F1" height="10" style="stroke:#181818;stroke-width:0.5;" width="15" x="1590.623" y="1023.2969"/><rect fill="#F1F1F1" height="2" style="stroke:#181818;stroke-width:0.5;" width="4" x="1588.623" y="1025.2969"/><rect fill="#F1F1F1" height="2" style="stroke:#181818;stroke-width:0.5;" width="4" x="1588.623" y="1029.2969"/><text fill="#000000" font-family="sans-serif" font-size="14" font-style="italic" lengthAdjust="spacing" textLength="68.8447" x="1514.3892" y="1051.292">«FastAPI»</text><text fill="#000000" font-family="sans-serif" font-size="14" lengthAdjust="spacing" textLength="73.623" x="1512" y="1067.5889">API Router</text></g><!--entity stats_load--><g class="entity" data-qualified-name="docker_host.compose.cnss.stats_load" data-source-line="62" id="ent0019"><rect fill="#F1F1F1" height="62.5938" rx="2.5" ry="2.5" style="stroke:#181818;stroke-width:0.5;" width="147.4541" x="1545.5" y="1277.2969"/><rect fill="#F1F1F1" height="10" style="stroke:#181818;stroke-width:0.5;" width="15" x="1672.9541" y="1282.2969"/><rect fill="#F1F1F1" height="2" style="stroke:#181818;stroke-width:0.5;" width="4" x="1670.9541" y="1284.2969"/><rect fill="#F1F1F1" height="2" style="stroke:#181818;stroke-width:0.5;" width="4" x="1670.9541" y="1288.2969"/><text fill="#000000" font-family="sans-serif" font-size="14" font-style="italic" lengthAdjust="spacing" textLength="86.4541" x="1571" y="1310.292">«Controller»</text><text fill="#000000" font-family="sans-serif" font-size="14" lengthAdjust="spacing" textLength="107.4541" x="1560.5" y="1326.5889">Load Controller</text></g><!--entity stats_get--><g class="entity" data-qualified-name="docker_host.compose.cnss.stats_get" data-source-line="65" id="ent0020"><rect fill="#F1F1F1" height="62.5938" rx="2.5" ry="2.5" style="stroke:#181818;stroke-width:0.5;" width="138.5742" x="1122.5" y="1277.2969"/><rect fill="#F1F1F1" height="10" style="stroke:#181818;stroke-width:0.5;" width="15" x="1241.0742" y="1282.2969"/><rect fill="#F1F1F1" height="2" style="stroke:#181818;stroke-width:0.5;" width="4" x="1239.0742" y="1284.2969"/><rect fill="#F1F1F1" height="2" style="stroke:#181818;stroke-width:0.5;" width="4" x="1239.0742" y="1288.2969"/><text fill="#000000" font-family="sans-serif" font-size="14" font-style="italic" lengthAdjust="spacing" textLength="86.4541" x="1143.5601" y="1310.292">«Controller»</text><text fill="#000000" font-family="sans-serif" font-size="14" lengthAdjust="spacing" textLength="98.5742" x="1137.5" y="1326.5889">Get Controller</text></g><!--entity reset_ctrl--><g class="entity" data-qualified-name="docker_host.compose.cnss.reset_ctrl" data-source-line="68" id="ent0021"><rect fill="#F1F1F1" height="62.5938" rx="2.5" ry="2.5" style="stroke:#181818;stroke-width:0.5;" width="153.3604" x="1299.5" y="1277.2969"/><rect fill="#F1F1F1" height="10" style="stroke:#181818;stroke-width:0.5;" width="15" x="1432.8604" y="1282.2969"/><rect fill="#F1F1F1" height="2" style="stroke:#181818;stroke-width:0.5;" width="4" x="1430.8604" y="1284.2969"/><rect fill="#F1F1F1" height="2" style="stroke:#181818;stroke-width:0.5;" width="4" x="1430.8604" y="1288.2969"/><text fill="#000000" font-family="sans-serif" font-size="14" font-style="italic" lengthAdjust="spacing" textLength="86.4541" x="1327.9531" y="1310.292">«Controller»</text><text fill="#000000" font-family="sans-serif" font-size="14" lengthAdjust="spacing" textLength="113.3604" x="1314.5" y="1326.5889">Reset Controller</text></g><!--entity static_web--><g class="entity" data-qualified-name="docker_host.compose.cnss.static_web" data-source-line="71" id="ent0022"><rect fill="#F1F1F1" height="62.5938" rx="2.5" ry="2.5" style="stroke:#181818;stroke-width:0.5;" width="166.1846" x="1119" y="1018.2969"/><rect fill="#F1F1F1" height="10" style="stroke:#181818;stroke-width:0.5;" width="15" x="1265.1846" y="1023.2969"/><rect fill="#F1F1F1" height="2" style="stroke:#181818;stroke-width:0.5;" width="4" x="1263.1846" y="1025.2969"/><rect fill="#F1F1F1" height="2" style="stroke:#181818;stroke-width:0.5;" width="4" x="1263.1846" y="1029.2969"/><text fill="#000000" font-family="sans-serif" font-size="14" font-style="italic" lengthAdjust="spacing" textLength="68.8447" x="1162.6699" y="1051.292">«FastAPI»</text><text fill="#000000" font-family="sans-serif" font-size="14" lengthAdjust="spacing" textLength="126.1846" x="1134" y="1067.5889">Static Web Server</text></g><!--entity db_repo--><g class="entity" data-qualified-name="docker_host.compose.cnss.db_repo" data-source-line="74" id="ent0023"><rect fill="#F1F1F1" height="62.5938" rx="2.5" ry="2.5" style="stroke:#181818;stroke-width:0.5;" width="164.0586" x="1294" y="1450.2969"/><rect fill="#F1F1F1" height="10" style="stroke:#181818;stroke-width:0.5;" width="15" x="1438.0586" y="1455.2969"/><rect fill="#F1F1F1" height="2" style="stroke:#181818;stroke-width:0.5;" width="4" x="1436.0586" y="1457.2969"/><rect fill="#F1F1F1" height="2" style="stroke:#181818;stroke-width:0.5;" width="4" x="1436.0586" y="1461.2969"/><text fill="#000000" font-family="sans-serif" font-size="14" font-style="italic" lengthAdjust="spacing" textLength="105.5605" x="1318.249" y="1483.292">«SQLAlchemy»</text><text fill="#000000" font-family="sans-serif" font-size="14" lengthAdjust="spacing" textLength="124.0586" x="1309" y="1499.5889">Persistence Layer</text></g><!--entity db_engine--><g class="entity" data-qualified-name="docker_host.compose.db.db_engine" data-source-line="81" id="ent0025"><rect fill="#F1F1F1" height="62.5938" rx="2.5" ry="2.5" style="stroke:#181818;stroke-width:0.5;" width="112.8164" x="1984.5" y="1277.2969"/><rect fill="#F1F1F1" height="10" style="stroke:#181818;stroke-width:0.5;" width="15" x="2077.3164" y="1282.2969"/><rect fill="#F1F1F1" height="2" style="stroke:#181818;stroke-width:0.5;" width="4" x="2075.3164" y="1284.2969"/><rect fill="#F1F1F1" height="2" style="stroke:#181818;stroke-width:0.5;" width="4" x="2075.3164" y="1288.2969"/><text fill="#000000" font-family="sans-serif" font-size="14" font-style="italic" lengthAdjust="spacing" textLength="44.9873" x="2013.4146" y="1310.292">«SQL»</text><text fill="#000000" font-family="sans-serif" font-size="14" lengthAdjust="spacing" textLength="72.8164" x="1999.5" y="1326.5889">DB Engine</text></g><!--entity net_iface--><g class="entity" data-qualified-name="network.net_iface" data-source-line="90" id="ent0027"><rect fill="#F1F1F1" height="62.5938" rx="2.5" ry="2.5" style="stroke:#181818;stroke-width:0.5;" width="165.583" x="220" y="115.2969"/><rect fill="#F1F1F1" height="10" style="stroke:#181818;stroke-width:0.5;" width="15" x="365.583" y="120.2969"/><rect fill="#F1F1F1" height="2" style="stroke:#181818;stroke-width:0.5;" width="4" x="363.583" y="122.2969"/><rect fill="#F1F1F1" height="2" style="stroke:#181818;stroke-width:0.5;" width="4" x="363.583" y="126.2969"/><text fill="#000000" font-family="sans-serif" font-size="14" font-style="italic" lengthAdjust="spacing" textLength="91.5879" x="251.9976" y="148.292">«Live traffic»</text><text fill="#000000" font-family="sans-serif" font-size="14" lengthAdjust="spacing" textLength="125.583" x="235" y="164.5889">Network Interface</text></g><!--entity end_user--><g class="entity" data-qualified-name="user_node.end_user" data-source-line="96" id="ent0029"><rect fill="#F1F1F1" height="62.5938" rx="2.5" ry="2.5" style="stroke:#181818;stroke-width:0.5;" width="116.3203" x="460" y="115.2969"/><rect fill="#F1F1F1" height="10" style="stroke:#181818;stroke-width:0.5;" width="15" x="556.3203" y="120.2969"/><rect fill="#F1F1F1" height="2" style="stroke:#181818;stroke-width:0.5;" width="4" x="554.3203" y="122.2969"/><rect fill="#F1F1F1" height="2" style="stroke:#181818;stroke-width:0.5;" width="4" x="554.3203" y="126.2969"/><text fill="#000000" font-family="sans-serif" font-size="14" font-style="italic" lengthAdjust="spacing" textLength="74.3203" x="476" y="148.292">«Browser»</text><text fill="#000000" font-family="sans-serif" font-size="14" lengthAdjust="spacing" textLength="62.9658" x="481.6772" y="164.5889">End User</text></g><!--link net_iface to gate--><g class="link" data-entity-1="ent0027" data-entity-2="ent0004" data-link-type="dependency" data-source-line="106" id="lnk30"><path codeLine="106" d="M296.41,178.3669 C293.85,199.2469 294.72,225.9769 311,242.2969 C325.49,256.8269 388.93,235.3569 403,250.2969 C447.785,297.8469 450.4225,370.9019 441.5525,432.8356 C437.1175,463.8025 429.8056,491.9891 423.4469,512.817 C422.652,515.4205 421.8721,517.909 421.1145,520.2736 C420.7357,521.4559 420.3625,522.6073 419.9958,523.7265 C419.8125,524.2861 419.6308,524.8377 419.4509,525.3811 C419.3609,525.6528 421.1665,520.2296 421.0774,520.4973" fill="none" id="net_iface-to-gate" style="stroke:#181818;stroke-width:1;"/><polygon fill="#181818" points="419.1823,526.1901,425.8202,518.9143,420.7615,521.4461,418.2297,516.3874,419.1823,526.1901" style="stroke:#181818;stroke-width:1;"/><text fill="#000000" font-family="sans-serif" font-size="13" lengthAdjust="spacing" textLength="137.0459" x="330.24" y="223.3638">Captures packets via</text><text fill="#000000" font-family="sans-serif" font-size="13" lengthAdjust="spacing" textLength="173.5259" x="312" y="238.4966">Raw socket (host network)</text></g><!--link gate to tproc--><g class="link" data-entity-1="ent0004" data-entity-2="ent0009" data-link-type="dependency" data-source-line="107" id="lnk31"><path codeLine="107" d="M419.2931,551.9753 C419.9647,552.0718 420.6748,552.174 421.4226,552.282 C427.4047,553.1453 435.7972,554.3716 446.1675,555.9244 C466.9081,559.03 495.56,563.4419 528.6625,568.8694 C594.8675,579.7244 678.875,594.6419 753,611.2969 C805.6,623.1169 816.92,633.8569 870,643.2969 C890.64,646.9669 948.5,637.1869 964,651.2969 C966.8456,653.8875 969.4357,656.6836 971.791,659.6501 C972.9687,661.1333 974.0876,662.6591 975.1504,664.2232 C975.6818,665.0052 976.1992,665.7968 976.7028,666.5974 C976.8287,666.7975 973.8027,661.8923 973.9269,662.0935" fill="none" id="gate-to-tproc" style="stroke:#181818;stroke-width:1;"/><polygon fill="#181818" points="977.078,667.1995,975.7553,657.4398,974.4521,662.9445,968.9474,661.6413,977.078,667.1995" style="stroke:#181818;stroke-width:1;"/><text fill="#000000" font-family="sans-serif" font-size="13" lengthAdjust="spacing" textLength="104.73" x="872.2632" y="624.3638">Routes traffic to</text><text fill="#000000" font-family="sans-serif" font-size="13" lengthAdjust="spacing" textLength="107.2563" x="871" y="639.4966">Internal network</text></g><!--link tproc to cnss--><g class="link" data-entity-1="ent0009" data-entity-2="ent0017" data-link-type="dependency" data-source-line="108" id="lnk32"><path codeLine="108" d="M1055.1876,846.6565 C1055.366,846.7658 1055.5445,846.8748 1055.7233,846.9836 C1057.1531,847.854 1058.5943,848.7098 1060.0456,849.5487 C1062.9484,851.2265 1065.8917,852.8363 1068.8658,854.3591 C1074.8139,857.4047 1080.885,860.1019 1087,862.2969 C1163.4,889.7269 1758.83,852.6669 1816,910.2969 C1837.37,931.8419 1839.6425,965.7294 1836.44,994.5906 C1835.6394,1001.8059 1834.4966,1008.7071 1833.2244,1015.0228 C1832.9064,1016.6017 1832.5803,1018.144 1832.2494,1019.6455 C1832.1667,1020.0208 1833.4002,1014.5399 1833.317,1014.9101" fill="none" id="tproc-to-cnss" style="stroke:#181818;stroke-width:1;"/><polygon fill="#181818" points="1832.0004,1020.7638,1837.8778,1012.8609,1833.0975,1015.8857,1830.0727,1011.1055,1832.0004,1020.7638" style="stroke:#181818;stroke-width:1;"/><text fill="#000000" font-family="sans-serif" font-size="13" lengthAdjust="spacing" textLength="124.998" x="1813.5176" y="883.3638">Sends statistics via</text><text fill="#000000" font-family="sans-serif" font-size="13" lengthAdjust="spacing" textLength="150.0332" x="1801" y="898.4966">HTTP POST (port 8080)</text></g><!--link cnss to db--><g class="link" data-entity-1="ent0017" data-entity-2="ent0024" data-link-type="dependency" data-source-line="109" id="lnk33"><path codeLine="109" d="M1832.0369,1087.6926 C1832.3498,1089.1286 1832.6696,1090.5965 1832.9959,1092.0942 C1838.2175,1116.0584 1845.1087,1147.6838 1852,1179.3081 C1858.8913,1210.9325 1865.7825,1242.5559 1871.0041,1266.5164 C1871.3304,1268.0139 1870.3727,1263.6191 1870.6856,1265.0549" fill="none" id="cnss-to-db" style="stroke:#181818;stroke-width:1;"/><polygon fill="#181818" points="1871.9631,1270.9173,1873.9551,1261.272,1870.8985,1266.032,1866.1385,1262.9754,1871.9631,1270.9173" style="stroke:#181818;stroke-width:1;"/><text fill="#000000" font-family="sans-serif" font-size="13" lengthAdjust="spacing" textLength="160.4751" x="1847" y="1142.3638">Stores/retrieves data via</text><text fill="#000000" font-family="sans-serif" font-size="13" lengthAdjust="spacing" textLength="103.8667" x="1875.3042" y="1157.4966">SQL (port 5432)</text></g><!--link end_user to gate--><g class="link" data-entity-1="ent0029" data-entity-2="ent0004" data-link-type="dependency" data-source-line="110" id="lnk34"><path codeLine="110" d="M509.78,178.5969 C497.35,225.1819 472.9425,316.6544 451.5,397.0131 C440.7788,437.1925 430.7988,474.5934 423.4278,502.2158 C422.5064,505.6686 421.6258,508.9686 420.7897,512.1021 C420.3716,513.6689 419.9646,515.194 419.5691,516.6759 C419.4703,517.0463 420.9191,511.6169 420.8217,511.982" fill="none" id="end_user-to-gate" style="stroke:#181818;stroke-width:1;"/><polygon fill="#181818" points="419.2747,517.7791,425.46,510.1147,420.5639,512.9481,417.7305,508.0521,419.2747,517.7791" style="stroke:#181818;stroke-width:1;"/><text fill="#000000" font-family="sans-serif" font-size="13" lengthAdjust="spacing" textLength="156.0381" x="501" y="223.3638">Accesses dashboard via</text><text fill="#000000" font-family="sans-serif" font-size="13" lengthAdjust="spacing" textLength="111.6362" x="523.2009" y="238.4966">HTTP (port 8000)</text></g><!--link gate to mock_target--><g class="link" data-entity-1="ent0004" data-entity-2="ent0014" data-link-type="dependency" data-source-line="111" id="lnk35"><path codeLine="111" d="M419.1611,550.5822 C419.6051,550.5722 420.0664,550.5622 420.5448,550.552 C422.4586,550.5113 424.6468,550.469 427.0973,550.4278 C436.8995,550.2629 450.8987,550.1161 468.3167,550.1672 C503.1528,550.2694 551.6644,551.1631 607.6263,554.2869 C719.55,560.5344 861.275,575.7019 983,611.2969 C1021.15,622.4569 1037.57,620.7469 1063,651.2969 C1073.0875,663.4169 1080.6325,677.9594 1086.2755,692.9981 C1089.097,700.5175 1091.4429,708.1609 1093.3935,715.6877 C1093.8811,717.5693 1094.344,719.4437 1094.7835,721.307 C1094.8384,721.54 1093.5311,715.9293 1093.5853,716.1619" fill="none" id="gate-to-mock_target" style="stroke:#181818;stroke-width:1;"/><polygon fill="#181818" points="1094.9472,722.0053,1096.8,712.3323,1093.8123,717.1358,1089.0088,714.1481,1094.9472,722.0053" style="stroke:#181818;stroke-width:1;"/><text fill="#000000" font-family="sans-serif" font-size="13" lengthAdjust="spacing" textLength="161.0083" x="1056" y="624.3638">Proxies allowed traffic to</text><text fill="#000000" font-family="sans-serif" font-size="13" lengthAdjust="spacing" textLength="128.4702" x="1072.269" y="639.4966">Internal (port 5000)</text></g><!--link gate to error_server--><g class="link" data-entity-1="ent0004" data-entity-2="ent0016" data-link-type="dependency" data-source-line="112" id="lnk36"><path codeLine="112" d="M419.2351,566.1751 C419.3278,566.3482 419.4212,566.5226 419.5153,566.6983 C419.7035,567.0496 419.8943,567.406 420.0878,567.7673 C420.8618,569.2125 421.6782,570.7369 422.5342,572.3352 C429.3822,585.1216 438.7644,602.64 449.2538,622.2256 C470.2325,661.3969 492.8071,703.5478 511.2271,737.9378" fill="none" id="gate-to-error_server" style="stroke:#181818;stroke-width:1;"/><polygon fill="#181818" points="514.06,743.2269,513.3366,733.4046,511.6992,738.8193,506.2845,737.1819,514.06,743.2269" style="stroke:#181818;stroke-width:1;"/><text fill="#000000" font-family="sans-serif" font-size="13" lengthAdjust="spacing" textLength="153.9561" x="460" y="624.3638">Serves block page from</text><text fill="#000000" font-family="sans-serif" font-size="13" lengthAdjust="spacing" textLength="128.4702" x="472.7429" y="639.4966">Internal (port 5000)</text></g><!--link packet_sniffer to ip_tracker--><g class="link" data-entity-1="ent0010" data-entity-2="ent0011" data-link-type="dependency" data-source-line="117" id="lnk37"><path codeLine="117" d="M826.76,822.5369 C826.38,871.9669 825.6661,962.5671 825.2861,1012.0171" fill="none" id="packet_sniffer-to-ip_tracker" style="stroke:#181818;stroke-width:1;"/><polygon fill="#181818" points="825.24,1018.0169,829.309,1009.0479,825.2784,1013.017,821.3093,1008.9864,825.24,1018.0169" style="stroke:#181818;stroke-width:1;"/><text fill="#000000" font-family="sans-serif" font-size="13" lengthAdjust="spacing" textLength="143.5269" x="827" y="883.3638">Updates per‑IP counts</text><text fill="#000000" font-family="sans-serif" font-size="13" lengthAdjust="spacing" textLength="116.0161" x="840.7554" y="898.4966">(in/out, protocols)</text></g><!--link ip_tracker to stats_builder--><g class="link" data-entity-1="ent0011" data-entity-2="ent0012" data-link-type="dependency" data-source-line="118" id="lnk38"><path codeLine="118" d="M824.76,1081.5369 C824.38,1130.9669 823.6661,1221.5671 823.2861,1271.0171" fill="none" id="ip_tracker-to-stats_builder" style="stroke:#181818;stroke-width:1;"/><polygon fill="#181818" points="823.24,1277.0169,827.309,1268.0479,823.2784,1272.017,819.3093,1267.9864,823.24,1277.0169" style="stroke:#181818;stroke-width:1;"/><text fill="#000000" font-family="sans-serif" font-size="13" lengthAdjust="spacing" textLength="122.8398" x="825" y="1142.3638">Aggregates top IPs</text><text fill="#000000" font-family="sans-serif" font-size="13" lengthAdjust="spacing" textLength="102.6797" x="835.0801" y="1157.4966">and port details</text></g><!--link stats_builder to http_sender--><g class="link" data-entity-1="ent0012" data-entity-2="ent0013" data-link-type="dependency" data-source-line="119" id="lnk39"><path codeLine="119" d="M823,1340.3669 C823,1371.3969 823,1413.1669 823,1444.2069" fill="none" id="stats_builder-to-http_sender" style="stroke:#181818;stroke-width:1;"/><polygon fill="#181818" points="823,1450.2069,827,1441.2069,823,1445.2069,819,1441.2069,823,1450.2069" style="stroke:#181818;stroke-width:1;"/><text fill="#000000" font-family="sans-serif" font-size="13" lengthAdjust="spacing" textLength="153.5371" x="824" y="1401.3638">Serialises NetworkStats</text><text fill="#000000" font-family="sans-serif" font-size="13" lengthAdjust="spacing" textLength="49.2261" x="876.1555" y="1416.4966">to JSON</text></g><!--link req_interceptor to ip_filter--><g class="link" data-entity-1="ent0005" data-entity-2="ent0006" data-link-type="dependency" data-source-line="122" id="lnk40"><path codeLine="122" d="M138.99,581.3669 C127.04,589.2869 116.35,599.1269 109,611.2969 C77.18,663.9969 131.104,720.1749 175.724,755.4649" fill="none" id="req_interceptor-to-ip_filter" style="stroke:#181818;stroke-width:1;"/><polygon fill="#181818" points="180.43,759.1869,175.8523,750.4665,176.5083,756.0852,170.8896,756.7412,180.43,759.1869" style="stroke:#181818;stroke-width:1;"/><text fill="#000000" font-family="sans-serif" font-size="13" lengthAdjust="spacing" textLength="123.5635" x="110" y="631.8638">Validates source IP</text></g><!--link ip_filter to proxy_fwd--><g class="link" data-entity-1="ent0006" data-entity-2="ent0007" data-link-type="dependency" data-source-line="123" id="lnk41"><path codeLine="123" d="M214.76,822.5969 C210.59,837.0169 205.77,854.4569 202,870.2969 C189.76,921.7569 179.6011,976.3879 173.3111,1012.0879" fill="none" id="ip_filter-to-proxy_fwd" style="stroke:#181818;stroke-width:1;"/><polygon fill="#181818" points="172.27,1017.9969,177.771,1009.8275,173.1376,1013.0727,169.8923,1008.4393,172.27,1017.9969" style="stroke:#181818;stroke-width:1;"/><text fill="#000000" font-family="sans-serif" font-size="13" lengthAdjust="spacing" textLength="65.9331" x="203" y="890.8638">«allowed»</text><text fill="#000000" font-family="sans-serif" font-size="13" lengthAdjust="spacing" textLength="113.5786" x="88.9623" y="841.8815">Forwards request</text><text fill="#000000" font-family="sans-serif" font-size="13" lengthAdjust="spacing" textLength="118.8091" x="86.347" y="857.0143">if IP is not blocked</text></g><!--link ip_filter to error_page--><g class="link" data-entity-1="ent0006" data-entity-2="ent0008" data-link-type="dependency" data-source-line="124" id="lnk42"><path codeLine="124" d="M245.65,822.4969 C254.93,836.5969 265.37,853.8269 273,870.2969 C296.1,920.1869 312.0655,976.1809 321.2555,1012.4309" fill="none" id="ip_filter-to-error_page" style="stroke:#181818;stroke-width:1;"/><polygon fill="#181818" points="322.73,1018.2469,324.3957,1008.5399,321.5013,1013.4002,316.641,1010.5058,322.73,1018.2469" style="stroke:#181818;stroke-width:1;"/><text fill="#000000" font-family="sans-serif" font-size="13" lengthAdjust="spacing" textLength="60.2583" x="287" y="890.8638">«denied»</text><text fill="#000000" font-family="sans-serif" font-size="13" lengthAdjust="spacing" textLength="79.6694" x="263.3742" y="842.0601">Returns 403</text><text fill="#000000" font-family="sans-serif" font-size="13" lengthAdjust="spacing" textLength="93.3867" x="256.5155" y="857.1929">if IP is blocked</text></g><!--link stats_load to db_repo--><g class="link" data-entity-1="ent0019" data-entity-2="ent0023" data-link-type="dependency" data-source-line="127" id="lnk43"><path codeLine="127" d="M1615.77,1340.6269 C1611.58,1365.4069 1601.97,1399.4169 1580,1420.2969 C1547.26,1451.4069 1505.1758,1465.5378 1463.9658,1472.9278" fill="none" id="stats_load-to-db_repo" style="stroke:#181818;stroke-width:1;"/><polygon fill="#181818" points="1458.06,1473.9869,1467.6247,1476.3355,1462.9815,1473.1043,1466.2127,1468.4611,1458.06,1473.9869" style="stroke:#181818;stroke-width:1;"/><text fill="#000000" font-family="sans-serif" font-size="13" lengthAdjust="spacing" textLength="179.3213" x="1602" y="1408.8638">Upserts the latest snapshot</text></g><!--link stats_get to db_repo--><g class="link" data-entity-1="ent0020" data-entity-2="ent0023" data-link-type="dependency" data-source-line="128" id="lnk44"><path codeLine="128" d="M1178.98,1340.4269 C1171.01,1364.4369 1165.22,1397.4869 1182,1420.2969 C1207.61,1455.1069 1247.2067,1469.5008 1287.7267,1476.0408" fill="none" id="stats_get-to-db_repo" style="stroke:#181818;stroke-width:1;"/><polygon fill="#181818" points="1293.65,1476.9969,1285.4023,1471.6139,1288.7139,1476.2002,1284.1276,1479.5117,1293.65,1476.9969" style="stroke:#181818;stroke-width:1;"/><text fill="#000000" font-family="sans-serif" font-size="13" lengthAdjust="spacing" textLength="180.2988" x="1183" y="1408.8638">Fetches the latest snapshot</text></g><!--link reset_ctrl to db_repo--><g class="link" data-entity-1="ent0021" data-entity-2="ent0023" data-link-type="dependency" data-source-line="129" id="lnk45"><path codeLine="129" d="M1374.3,1340.7569 C1373.29,1362.9069 1372.33,1393.4369 1373,1420.2969 C1373.24,1429.9669 1373.3816,1434.5148 1373.8716,1444.0348" fill="none" id="reset_ctrl-to-db_repo" style="stroke:#181818;stroke-width:1;"/><polygon fill="#181818" points="1374.18,1450.0269,1377.7121,1440.8332,1373.923,1445.0335,1369.7227,1441.2444,1374.18,1450.0269" style="stroke:#181818;stroke-width:1;"/><text fill="#000000" font-family="sans-serif" font-size="13" lengthAdjust="spacing" textLength="201.3286" x="1374" y="1408.8638">Updates the baseline snapshot</text></g><!--link static_web to stats_get--><g class="link" data-entity-1="ent0022" data-entity-2="ent0020" data-link-type="dependency" data-source-line="130" id="lnk46"><path codeLine="130" d="M1200.8,1081.5369 C1198.88,1130.9669 1195.3528,1221.5714 1193.4328,1271.0214" fill="none" id="static_web-to-stats_get" style="stroke:#181818;stroke-width:1;"/><polygon fill="#181818" points="1193.2,1277.0169,1197.5462,1268.1788,1193.394,1272.0206,1189.5522,1267.8685,1193.2,1277.0169" style="stroke:#181818;stroke-width:1;"/><text fill="#000000" font-family="sans-serif" font-size="13" lengthAdjust="spacing" textLength="113.7183" x="1199" y="1142.3638">Calls /packets via</text><text fill="#000000" font-family="sans-serif" font-size="13" lengthAdjust="spacing" textLength="30.5259" x="1240.5962" y="1157.4966">AJAX</text></g><?plantuml-src lLXjJoCt4FwUNs7bGm6r5DIxIgSJZSHhoIc5b42lKZcjd5qdiTZOUxP3BgfEwb_eN-mlwJEsDt4279m8bmy8xyuyZsSyCvxP3VRBCt-D3NQenvLMGZbs9FdGy37RPfU63mOoPrsZSs6jDgmtiqwCsMOXRbdVS9MFjg3RdHZ1kYLNxkgt3jjKcXs-PgM4W9bj0MUgpOrbKZ6kPaoeMscq6eCAgi_UUSD9LufdR1-Rs9x_s96eIZsZpR4pNGZBDezqVYCCEzNMiUy2ZnLRYKv3GP0r4xbhzLT7gicddVTI5NfgTyOyF-zzQ39kMU75iX71xUsHQgl5_cum_9Pm8X6Wpaq-4jOPxh2TN2l7fHB61hWyYALG7ej-IuOTreflsH18wVvh-NpkmoQ9W3hivSErkX2te1JaoaypDfLknDfTTY9B9unKGxyL3xktDz_XtAvxy2_4nmbiOcq5W5nKJXkFOSJ7J2wU0UxqyhBBJhagodiGWvM8Dwb0k22mIrAV7ze5JDZFAJIY9NuBiie6VWNoGut0xkYXpDTDlUHGprlHVzbWMe3N1FVOTRCU6mEdTlbGU4f1owp2CZhwsNoV7uy-1qFpHyBFowJnTpULjs46NZgMyyfH_K68CEkuazR9t7hx0jKJGpB2zPGS368eLFvHPiCZ0FL0Dbj_5C8wihCEFnUMBnf_FNZAieE9B8j8JBwpMJyy0NTtLg2Whv_P9tHFg9ftv5oLMRzUP-G_8HB7YAxCSJF4iNyv7XF9D2eHZKxaJXICLrKfSmIVLcpJ5p35oorlNyhon53SJz3ywNiWS6GbhVpXk95Mty99eKPOOL2l7l5IAfgwwQ2a_mgwCRm8gvOBK0J_adCsqbebuOlI25xCM246a2zWhvMuFFqLj6cboY7bDX3K15smWT5Z_t9h1VMzs2XBTYD41Ncc9yx3z4NE9pR2uHzafVlnQvoMAzmfNtOMYQHE8csZIr_6A3ad5aaIdCvEk7NxtJRxthz105orm-LFD4-DAUXVmC2OTRoIcV5B04JyTMTwH_E2HRlAfIfJqXigR_MxTLF_YcIxbpbauSiHNmXxbzhGmontfdnHxXWSxqK_XixSRfbdKpnziPFkefV1lIiexpfy5fcBVcP4fUdU_BspNwAB7S--HSag-e_aNj57vdNHWG-DmDQeajS6EFXB6weo0nGg5zkEbRwYw3yrwuuEsB4QGgfsYF2hu98r-2By_Rmon1n_2XTG767kZ2fdmj581YVKac6OKE7vwboIs1CrGzy-uBcezJ99AsXsvAse_RPauCE6UGF2pevH_QvGj367tSgSHf03Wm4A5T8JeHQRp4i-lCKQ8bmmgiX82V8Hw6lsjB6EmVhYkBD_sJu_wvsskxsrJBpnh1V7Z51Kw4FGBc1UjNmioFIPdXZSZ_DnjWXpSPnS6uipszvkXPlkBMiUXcQwRdqjkvKSqn-VCgjzUxpf1zSOA5lDHfmbMx7N1eI_PEmyTPo-LktO4DLwpKOz1BJ27GOrwWXjacY1sJUBtVFU9Tkij77ipUwRNR36-xL5cKYwI5bXTunmHcAkGg9nnmC0qYog_lpwrKzGdKT4QdQO0hsY7VKrDqL2NpFlxgRsfcqT46YEau8Qar9FqN7SQtxSo0hIKXFaFM78XZvrJRvLyktBGp3pQ9Y_NkI24QLl8kr8LeWCDqBdDEOtlfzXFFbciX8Rm6o7XigVKsDb3g9D9sCAjdnL5VxhH2NCV__yYpulrnDaqhL2Bxo3UFY1fbkdSrrQR3dH9QZbmODEOuYwFFI0JbTe6m54RP4tkn2ekgLjDfRL22YT988V9Iyb7MiiMtxekLPEitUzyxDcOYUnDLO_FaGxuzS08Fu1k62eHN8XTTfTRqsK8Fd550_v4sscY2N_MOEccciuaBfW78FIBfomA9eeJZ5iMgqLkAJhfTGII4xa-ElTLmbK0bC89JtAmZ9AbKRITOMi2HUpFpa47lBSZGGhoJHSW8fNTgHTxU8m7YrfdGX7twJkrqgwdJjamNkarkTMb7GLBjF5JcKH5p6_3k4XotQMojB-k_q_c_y3?></g></svg>