<svg xmlns="http://www.w3.org/2000/svg" xmlns:xlink="http://www.w3.org/1999/xlink" version="1.1" data-diagram-type="SEQUENCE" style="width:967px;height:1006px;background:#FFFFFF;" width="967px" height="1006px" viewBox="0 0 967 1006" zoomAndPan="magnify" preserveAspectRatio="none" contentStyleType="text/css"><?plantuml 1.2026.7beta8?><defs/><g font-family="sans-serif" lengthAdjust="spacing"><g class="title" data-source-line="3"><text x="253.649" y="27.995" fill="#000" font-size="14" textLength="458.069" font-weight="700">Sequence Diagram - Live Traffic Capture &amp; Statistics Flow</text></g><rect x="437.279" y="48.297" width="513.088" height="943.648" fill="#DDD" style="stroke:#181818;stroke-width:0.5;"/><text x="650.485" y="60.364" fill="#000" font-size="13" textLength="86.677" font-weight="700">Target Host</text><g><title>End User</title><rect x="40.983" y="143.727" width="8" height="765.922" fill="#000" fill-opacity="0"/><line x1="44.483" y1="143.727" x2="44.483" y2="909.648" style="stroke:#181818;stroke-width:0.5;stroke-dasharray:5,5;"/></g><g><title>CNSS API</title><rect x="165.49" y="143.727" width="8" height="765.922" fill="#000" fill-opacity="0"/><line x1="168.99" y1="143.727" x2="168.99" y2="909.648" style="stroke:#181818;stroke-width:0.5;stroke-dasharray:5,5;"/></g><g><title></title><rect x="163.99" y="515.055" width="10" height="129.531" fill="#FFF" style="stroke:#181818;stroke-width:1;"/></g><g><title></title><rect x="163.99" y="687.719" width="10" height="87.398" fill="#FFF" style="stroke:#181818;stroke-width:1;"/></g><g><title></title><rect x="163.99" y="804.25" width="10" height="87.398" fill="#FFF" style="stroke:#181818;stroke-width:1;"/></g><g><title>PostgreSQL</title><rect x="384.403" y="143.727" width="8" height="765.922" fill="#000" fill-opacity="0"/><line x1="387.903" y1="143.727" x2="387.903" y2="909.648" style="stroke:#181818;stroke-width:0.5;stroke-dasharray:5,5;"/></g><g><title></title><rect x="382.903" y="586.32" width="10" height="29.133" fill="#FFF" style="stroke:#181818;stroke-width:1;"/></g><g><title></title><rect x="382.903" y="716.852" width="10" height="29.133" fill="#FFF" style="stroke:#181818;stroke-width:1;"/></g><g><title></title><rect x="382.903" y="833.383" width="10" height="29.133" fill="#FFF" style="stroke:#181818;stroke-width:1;"/></g><g><title>Target Container</title><rect x="504.149" y="143.727" width="8" height="765.922" fill="#000" fill-opacity="0"/><line x1="507.649" y1="143.727" x2="507.649" y2="909.648" style="stroke:#181818;stroke-width:0.5;stroke-dasharray:5,5;"/></g><g><title>Traffic Processor</title><rect x="645.902" y="143.727" width="8" height="765.922" fill="#000" fill-opacity="0"/><line x1="649.402" y1="143.727" x2="649.402" y2="909.648" style="stroke:#181818;stroke-width:0.5;stroke-dasharray:5,5;"/></g><g><title></title><rect x="644.402" y="201.992" width="10" height="197.664" fill="#FFF" style="stroke:#181818;stroke-width:1;"/></g><g><title>Docker Network</title><rect x="879.656" y="143.727" width="8" height="765.922" fill="#000" fill-opacity="0"/><line x1="883.156" y1="143.727" x2="883.156" y2="909.648" style="stroke:#181818;stroke-width:0.5;stroke-dasharray:5,5;"/></g><text x="10" y="140.425" fill="#000" font-size="14" textLength="62.966">End User</text><ellipse cx="44.483" cy="75.93" rx="8" ry="8" fill="#E2E2F0" style="stroke:#181818;stroke-width:0.5;"/><path d="M44.483,83.93 L44.483,110.93 M31.483,91.93 L57.483,91.93 M44.483,110.93 L31.483,125.93 M44.483,110.93 L57.483,125.93" style="stroke:#181818;stroke-width:0.5;" fill="none"/><rect x="129.68" y="112.43" width="78.62" height="30.297" fill="#E2E2F0" style="stroke:#181818;stroke-width:0.5;" rx="2.5" ry="2.5"/><text x="136.68" y="132.425" fill="#000" font-size="14" textLength="64.62">CNSS API</text><text x="344.526" y="140.425" fill="#000" font-size="14" textLength="80.753">PostgreSQL</text><path d="M369.903,91.43 C369.903,81.43 387.903,81.43 387.903,81.43 C387.903,81.43 405.903,81.43 405.903,91.43 L405.903,117.43 C405.903,127.43 387.903,127.43 387.903,127.43 C387.903,127.43 369.903,127.43 369.903,117.43 L369.903,91.43" style="stroke:#181818;stroke-width:0.5;" fill="#E2E2F0"/><path d="M369.903,91.43 C369.903,101.43 387.903,101.43 387.903,101.43 C387.903,101.43 405.903,101.43 405.903,91.43" style="stroke:#181818;stroke-width:0.5;" fill="none"/><rect x="441.279" y="112.43" width="132.74" height="30.297" fill="#E2E2F0" style="stroke:#181818;stroke-width:0.5;" rx="2.5" ry="2.5"/><text x="448.279" y="132.425" fill="#000" font-size="14" textLength="118.74">Target Container</text><rect x="584.02" y="112.43" width="130.765" height="30.297" fill="#E2E2F0" style="stroke:#181818;stroke-width:0.5;" rx="2.5" ry="2.5"/><text x="591.02" y="132.425" fill="#000" font-size="14" textLength="116.765">Traffic Processor</text><rect x="819.944" y="112.43" width="126.424" height="30.297" fill="#E2E2F0" style="stroke:#181818;stroke-width:0.5;" rx="2.5" ry="2.5"/><text x="826.944" y="132.425" fill="#000" font-size="14" textLength="112.424">Docker Network</text><text x="10" y="922.644" fill="#000" font-size="14" textLength="62.966">End User</text><ellipse cx="44.483" cy="934.445" rx="8" ry="8" fill="#E2E2F0" style="stroke:#181818;stroke-width:0.5;"/><path d="M44.483,942.445 L44.483,969.445 M31.483,950.445 L57.483,950.445 M44.483,969.445 L31.483,984.445 M44.483,969.445 L57.483,984.445" style="stroke:#181818;stroke-width:0.5;" fill="none"/><rect x="129.68" y="909.648" width="78.62" height="30.297" fill="#E2E2F0" style="stroke:#181818;stroke-width:0.5;" rx="2.5" ry="2.5"/><text x="136.68" y="929.644" fill="#000" font-size="14" textLength="64.62">CNSS API</text><text x="344.526" y="922.644" fill="#000" font-size="14" textLength="80.753">PostgreSQL</text><path d="M369.903,935.945 C369.903,925.945 387.903,925.945 387.903,925.945 C387.903,925.945 405.903,925.945 405.903,935.945 L405.903,961.945 C405.903,971.945 387.903,971.945 387.903,971.945 C387.903,971.945 369.903,971.945 369.903,961.945 L369.903,935.945" style="stroke:#181818;stroke-width:0.5;" fill="#E2E2F0"/><path d="M369.903,935.945 C369.903,945.945 387.903,945.945 387.903,945.945 C387.903,945.945 405.903,945.945 405.903,935.945" style="stroke:#181818;stroke-width:0.5;" fill="none"/><rect x="441.279" y="909.648" width="132.74" height="30.297" fill="#E2E2F0" style="stroke:#181818;stroke-width:0.5;" rx="2.5" ry="2.5"/><text x="448.279" y="929.644" fill="#000" font-size="14" textLength="118.74">Target Container</text><rect x="584.02" y="909.648" width="130.765" height="30.297" fill="#E2E2F0" style="stroke:#181818;stroke-width:0.5;" rx="2.5" ry="2.5"/><text x="591.02" y="929.644" fill="#000" font-size="14" textLength="116.765">Traffic Processor</text><rect x="819.944" y="909.648" width="126.424" height="30.297" fill="#E2E2F0" style="stroke:#181818;stroke-width:0.5;" rx="2.5" ry="2.5"/><text x="826.944" y="929.644" fill="#000" font-size="14" textLength="112.424">Docker Network</text><polygon points="518.649,168.859,508.649,172.859,518.649,176.859,514.649,172.859" fill="#181818" style="stroke:#181818;stroke-width:1;stroke-linejoin:miter;stroke-miterlimit:10;"/><polygon points="871.156,168.859,881.156,172.859,871.156,176.859,875.156,172.859" fill="#181818" style="stroke:#181818;stroke-width:1;stroke-linejoin:miter;stroke-miterlimit:10;"/><line x1="512.649" y1="172.859" x2="877.156" y2="172.859" style="stroke:#181818;stroke-width:1;"/><text x="524.649" y="167.793" fill="#000" font-size="13" textLength="172.015">Application network traffic</text><polygon points="665.402,197.992,655.402,201.992,665.402,205.992,661.402,201.992" fill="#181818" style="stroke:#181818;stroke-width:1;stroke-linejoin:miter;stroke-miterlimit:10;"/><line x1="659.402" y1="201.992" x2="882.156" y2="201.992" style="stroke:#181818;stroke-width:1;"/><text x="671.402" y="196.926" fill="#000" font-size="13" textLength="106.869">Capture packets</text><line x1="654.402" y1="231.125" x2="696.402" y2="231.125" style="stroke:#181818;stroke-width:1;"/><line x1="696.402" y1="231.125" x2="696.402" y2="244.125" style="stroke:#181818;stroke-width:1;"/><line x1="655.402" y1="244.125" x2="696.402" y2="244.125" style="stroke:#181818;stroke-width:1;"/><polygon points="665.402,240.125,655.402,244.125,665.402,248.125,661.402,244.125" fill="#181818" style="stroke:#181818;stroke-width:1;stroke-linejoin:miter;stroke-miterlimit:10;"/><text x="661.402" y="226.059" fill="#000" font-size="13" textLength="130.965">Sniff packet (Scapy)</text><line x1="654.402" y1="273.258" x2="696.402" y2="273.258" style="stroke:#181818;stroke-width:1;"/><line x1="696.402" y1="273.258" x2="696.402" y2="286.258" style="stroke:#181818;stroke-width:1;"/><line x1="655.402" y1="286.258" x2="696.402" y2="286.258" style="stroke:#181818;stroke-width:1;"/><polygon points="665.402,282.258,655.402,286.258,665.402,290.258,661.402,286.258" fill="#181818" style="stroke:#181818;stroke-width:1;stroke-linejoin:miter;stroke-miterlimit:10;"/><text x="661.402" y="268.192" fill="#000" font-size="13" textLength="214.754">Classify protocol (TCP/UDP/ICMP)</text><line x1="654.402" y1="315.391" x2="696.402" y2="315.391" style="stroke:#181818;stroke-width:1;"/><line x1="696.402" y1="315.391" x2="696.402" y2="328.391" style="stroke:#181818;stroke-width:1;"/><line x1="655.402" y1="328.391" x2="696.402" y2="328.391" style="stroke:#181818;stroke-width:1;"/><polygon points="665.402,324.391,655.402,328.391,665.402,332.391,661.402,328.391" fill="#181818" style="stroke:#181818;stroke-width:1;stroke-linejoin:miter;stroke-miterlimit:10;"/><text x="661.402" y="310.325" fill="#000" font-size="13" textLength="172.802">Determine traffic direction</text><line x1="654.402" y1="357.523" x2="696.402" y2="357.523" style="stroke:#181818;stroke-width:1;"/><line x1="696.402" y1="357.523" x2="696.402" y2="370.523" style="stroke:#181818;stroke-width:1;"/><line x1="655.402" y1="370.523" x2="696.402" y2="370.523" style="stroke:#181818;stroke-width:1;"/><polygon points="665.402,366.523,655.402,370.523,665.402,374.523,661.402,370.523" fill="#181818" style="stroke:#181818;stroke-width:1;stroke-linejoin:miter;stroke-miterlimit:10;"/><text x="661.402" y="352.458" fill="#000" font-size="13" textLength="151.614">Update traffic statistics</text><line x1="654.402" y1="399.656" x2="696.402" y2="399.656" style="stroke:#181818;stroke-width:1;"/><line x1="696.402" y1="399.656" x2="696.402" y2="412.656" style="stroke:#181818;stroke-width:1;"/><line x1="649.402" y1="412.656" x2="696.402" y2="412.656" style="stroke:#181818;stroke-width:1;"/><polygon points="659.402,408.656,649.402,412.656,659.402,416.656,655.402,412.656" fill="#181818" style="stroke:#181818;stroke-width:1;stroke-linejoin:miter;stroke-miterlimit:10;"/><text x="661.402" y="394.59" fill="#000" font-size="13" textLength="151.252">Update per-IP statistics</text><path d="M147.99,424.656 L224.614,424.656 L224.614,431.789 L214.614,441.789 L147.99,441.789 L147.99,424.656" style="stroke:#000;stroke-width:1.5;" fill="#EEE"/><rect x="147.99" y="424.656" width="718.279" height="227.93" fill="none" style="stroke:#000;stroke-width:1.5;"/><text x="162.99" y="437.723" fill="#000" font-size="13" textLength="31.624" font-weight="700">loop</text><text x="239.614" y="436.867" fill="#000" font-size="11" textLength="216.638" font-weight="700">[Every delay seconds (default 1 s)]</text><line x1="649.402" y1="472.922" x2="691.402" y2="472.922" style="stroke:#181818;stroke-width:1;"/><line x1="691.402" y1="472.922" x2="691.402" y2="485.922" style="stroke:#181818;stroke-width:1;"/><line x1="650.402" y1="485.922" x2="691.402" y2="485.922" style="stroke:#181818;stroke-width:1;"/><polygon points="660.402,481.922,650.402,485.922,660.402,489.922,656.402,485.922" fill="#181818" style="stroke:#181818;stroke-width:1;stroke-linejoin:miter;stroke-miterlimit:10;"/><text x="656.402" y="467.856" fill="#000" font-size="13" textLength="181.867">Build statistics batch (JSON)</text><polygon points="184.99,511.055,174.99,515.055,184.99,519.055,180.99,515.055" fill="#181818" style="stroke:#181818;stroke-width:1;stroke-linejoin:miter;stroke-miterlimit:10;"/><line x1="178.99" y1="515.055" x2="648.402" y2="515.055" style="stroke:#181818;stroke-width:1;"/><text x="190.99" y="509.989" fill="#000" font-size="13" textLength="108.189">HTTP POST /load</text><line x1="173.99" y1="544.188" x2="215.99" y2="544.188" style="stroke:#181818;stroke-width:1;"/><line x1="215.99" y1="544.188" x2="215.99" y2="557.188" style="stroke:#181818;stroke-width:1;"/><line x1="174.99" y1="557.188" x2="215.99" y2="557.188" style="stroke:#181818;stroke-width:1;"/><polygon points="184.99,553.188,174.99,557.188,184.99,561.188,180.99,557.188" fill="#181818" style="stroke:#181818;stroke-width:1;stroke-linejoin:miter;stroke-miterlimit:10;"/><text x="180.99" y="539.122" fill="#000" font-size="13" textLength="199.913">Validate NetworkStats schema</text><polygon points="370.903,582.32,380.903,586.32,370.903,590.32,374.903,586.32" fill="#181818" style="stroke:#181818;stroke-width:1;stroke-linejoin:miter;stroke-miterlimit:10;"/><line x1="173.99" y1="586.32" x2="376.903" y2="586.32" style="stroke:#181818;stroke-width:1;"/><text x="180.99" y="581.254" fill="#000" font-size="13" textLength="137.401">Store latest statistics</text><polygon points="184.99,611.453,174.99,615.453,184.99,619.453,180.99,615.453" fill="#181818" style="stroke:#181818;stroke-width:1;stroke-linejoin:miter;stroke-miterlimit:10;"/><line x1="178.99" y1="615.453" x2="381.903" y2="615.453" style="stroke:#181818;stroke-width:1;stroke-dasharray:2,2;"/><text x="190.99" y="610.387" fill="#000" font-size="13" textLength="52.33">Success</text><polygon points="637.402,640.586,647.402,644.586,637.402,648.586,641.402,644.586" fill="#181818" style="stroke:#181818;stroke-width:1;stroke-linejoin:miter;stroke-miterlimit:10;"/><line x1="173.99" y1="644.586" x2="643.402" y2="644.586" style="stroke:#181818;stroke-width:1;stroke-dasharray:2,2;"/><text x="180.99" y="639.52" fill="#000" font-size="13" textLength="85.332">HTTP 200 OK</text><polygon points="151.99,683.719,161.99,687.719,151.99,691.719,155.99,687.719" fill="#181818" style="stroke:#181818;stroke-width:1;stroke-linejoin:miter;stroke-miterlimit:10;"/><line x1="44.483" y1="687.719" x2="157.99" y2="687.719" style="stroke:#181818;stroke-width:1;"/><text x="51.483" y="682.653" fill="#000" font-size="13" textLength="85.503">GET /packets</text><polygon points="370.903,712.852,380.903,716.852,370.903,720.852,374.903,716.852" fill="#181818" style="stroke:#181818;stroke-width:1;stroke-linejoin:miter;stroke-miterlimit:10;"/><line x1="173.99" y1="716.852" x2="376.903" y2="716.852" style="stroke:#181818;stroke-width:1;"/><text x="180.99" y="711.786" fill="#000" font-size="13" textLength="157.53">Retrieve latest statistics</text><polygon points="184.99,741.984,174.99,745.984,184.99,749.984,180.99,745.984" fill="#181818" style="stroke:#181818;stroke-width:1;stroke-linejoin:miter;stroke-miterlimit:10;"/><line x1="178.99" y1="745.984" x2="381.903" y2="745.984" style="stroke:#181818;stroke-width:1;stroke-dasharray:2,2;"/><text x="190.99" y="740.918" fill="#000" font-size="13" textLength="59.427">Statistics</text><polygon points="55.483,771.117,45.483,775.117,55.483,779.117,51.483,775.117" fill="#181818" style="stroke:#181818;stroke-width:1;stroke-linejoin:miter;stroke-miterlimit:10;"/><line x1="49.483" y1="775.117" x2="162.99" y2="775.117" style="stroke:#181818;stroke-width:1;stroke-dasharray:2,2;"/><text x="61.483" y="770.051" fill="#000" font-size="13" textLength="95.507">JSON response</text><polygon points="151.99,800.25,161.99,804.25,151.99,808.25,155.99,804.25" fill="#181818" style="stroke:#181818;stroke-width:1;stroke-linejoin:miter;stroke-miterlimit:10;"/><line x1="44.483" y1="804.25" x2="157.99" y2="804.25" style="stroke:#181818;stroke-width:1;"/><text x="51.483" y="799.184" fill="#000" font-size="13" textLength="75.988">POST /reset</text><polygon points="370.903,829.383,380.903,833.383,370.903,837.383,374.903,833.383" fill="#181818" style="stroke:#181818;stroke-width:1;stroke-linejoin:miter;stroke-miterlimit:10;"/><line x1="173.99" y1="833.383" x2="376.903" y2="833.383" style="stroke:#181818;stroke-width:1;"/><text x="180.99" y="828.317" fill="#000" font-size="13" textLength="144.53">Reset stored statistics</text><polygon points="184.99,858.516,174.99,862.516,184.99,866.516,180.99,862.516" fill="#181818" style="stroke:#181818;stroke-width:1;stroke-linejoin:miter;stroke-miterlimit:10;"/><line x1="178.99" y1="862.516" x2="381.903" y2="862.516" style="stroke:#181818;stroke-width:1;stroke-dasharray:2,2;"/><text x="190.99" y="857.45" fill="#000" font-size="13" textLength="52.33">Success</text><polygon points="55.483,887.648,45.483,891.648,55.483,895.648,51.483,891.648" fill="#181818" style="stroke:#181818;stroke-width:1;stroke-linejoin:miter;stroke-miterlimit:10;"/><line x1="49.483" y1="891.648" x2="162.99" y2="891.648" style="stroke:#181818;stroke-width:1;stroke-dasharray:2,2;"/><text x="61.483" y="886.583" fill="#000" font-size="13" textLength="85.332">HTTP 200 OK</text><?plantuml-src bPF1ajem343l_WeDXvOzC6nxP3gTsGBjqcuXRM3lmXQiPqFisWBAtrSE0HAsizDo2jAB_2GhRs5qA75ZDJnQsaCF7koEO1vmjPBO43rl0y4Ro1dPHhOwmkV2xPLYomL1Jh-sL6g2aSLrmCr_543DBa1dN1fOH0eTm0XRUL0UWs3MOydG6Kxp7EwoIPL6RvL1nYL6Waxc8gy3vJyUggHPAhLqlw4pnx0cXdj9Tzh5wipGbOoshC_aAdW5rlfPS9fYT3NfszJ8wMSAC2NUk_1S8QLK8kb8H6H4n-C-z3wc-03kl2-ibZ6uCWNIIy37avII00Z8Vd0UcaUfpp5DokwGAGaezYSiB-rgLKFGpJNwmqqZFImmHhiwW0-EdNO5TEV3hByOPVt9y7lMH4V453OoaPCE61j89z46jV2cagYHUBxGbuodq9jaJKGPQhLHEETXlADm04C57Y2ITgM9q3Mqmct1y0xYZL8WlqlvJrjRc4PPM2Bh9-X-pMVJ5YoRCe3x-Jo3R9RFeLyuD5NwB95swHZnzlp68nQsQg2-qxIq4Q9-eWssQBEK-Sl-4XI2HswssZf6jZBzDqledGx9jpejrJ5EJV9oGjrlrS7xsrkOVRl6AtzPDQNIHtFkuCjOkdsnE1NSKFz972pj_cRVz6bPNv0hwPDmyXX0kWe85Bqh8wbhuPRhyMg4bO_c5LL9Yw3CsloJPptTLoMRSsqh_W40?></g></svg>