<svg xmlns="http://www.w3.org/2000/svg" xmlns:xlink="http://www.w3.org/1999/xlink" version="1.1" data-diagram-type="SEQUENCE" style="width:1426px;height:1283px;background:#FFFFFF;" width="1426px" height="1283px" viewBox="0 0 1426 1283" zoomAndPan="magnify" preserveAspectRatio="none" contentStyleType="text/css"><?plantuml 1.2026.7beta6?><defs/><g font-family="sans-serif" lengthAdjust="spacing"><g class="title" data-source-line="1"><text x="527.453" y="27.995" fill="#000" font-size="14" textLength="369.817" font-weight="700">Sequence Diagram - Live Traffic &amp; Access Flow</text></g><g><title>End User</title><rect x="40.983" y="123.594" width="8" height="1072.656" fill="#000" fill-opacity="0"/><line x1="44.483" y1="123.594" x2="44.483" y2="1196.25" style="stroke:#181818;stroke-width:0.5;stroke-dasharray:5,5;"/></g><g><title>Gate</title><rect x="285.657" y="123.594" width="8" height="1072.656" fill="#000" fill-opacity="0"/><line x1="289.157" y1="123.594" x2="289.157" y2="1196.25" style="stroke:#181818;stroke-width:0.5;stroke-dasharray:5,5;"/></g><g><title></title><rect x="284.157" y="885.383" width="10" height="300.867" fill="#FFF" style="stroke:#181818;stroke-width:1;"/></g><g><title>Mock Target</title><rect x="545.106" y="123.594" width="8" height="1072.656" fill="#000" fill-opacity="0"/><line x1="548.606" y1="123.594" x2="548.606" y2="1196.25" style="stroke:#181818;stroke-width:0.5;stroke-dasharray:5,5;"/></g><g><title></title><rect x="543.606" y="987.781" width="10" height="29.133" fill="#FFF" style="stroke:#181818;stroke-width:1;"/></g><g><title>Error Server</title><rect x="655.014" y="123.594" width="8" height="1072.656" fill="#000" fill-opacity="0"/><line x1="658.514" y1="123.594" x2="658.514" y2="1196.25" style="stroke:#181818;stroke-width:0.5;stroke-dasharray:5,5;"/></g><g><title></title><rect x="653.514" y="1105.984" width="10" height="29.133" fill="#FFF" style="stroke:#181818;stroke-width:1;"/></g><g><title>CNSS API</title><rect x="753.843" y="123.594" width="8" height="1072.656" fill="#000" fill-opacity="0"/><line x1="757.343" y1="123.594" x2="757.343" y2="1196.25" style="stroke:#181818;stroke-width:0.5;stroke-dasharray:5,5;"/></g><g><title></title><rect x="752.343" y="509.922" width="10" height="129.531" fill="#FFF" style="stroke:#181818;stroke-width:1;"/></g><g><title></title><rect x="752.343" y="725.719" width="10" height="87.398" fill="#FFF" style="stroke:#181818;stroke-width:1;"/></g><g><title>PostgreSQL</title><rect x="1024.794" y="123.594" width="8" height="1072.656" fill="#000" fill-opacity="0"/><line x1="1028.294" y1="123.594" x2="1028.294" y2="1196.25" style="stroke:#181818;stroke-width:0.5;stroke-dasharray:5,5;"/></g><g><title></title><rect x="1023.294" y="581.188" width="10" height="29.133" fill="#FFF" style="stroke:#181818;stroke-width:1;"/></g><g><title></title><rect x="1023.294" y="754.852" width="10" height="29.133" fill="#FFF" style="stroke:#181818;stroke-width:1;"/></g><g><title>TProc</title><rect x="1108.677" y="123.594" width="8" height="1072.656" fill="#000" fill-opacity="0"/><line x1="1112.177" y1="123.594" x2="1112.177" y2="1196.25" style="stroke:#181818;stroke-width:0.5;stroke-dasharray:5,5;"/></g><g><title></title><rect x="1107.177" y="195.859" width="10" height="155.531" fill="#FFF" style="stroke:#181818;stroke-width:1;"/></g><g><title>Network Interface</title><rect x="1342.431" y="123.594" width="8" height="1072.656" fill="#000" fill-opacity="0"/><line x1="1345.931" y1="123.594" x2="1345.931" y2="1196.25" style="stroke:#181818;stroke-width:0.5;stroke-dasharray:5,5;"/></g><text x="10" y="120.292" fill="#000" font-size="14" textLength="62.966">End User</text><ellipse cx="44.483" cy="55.797" rx="8" ry="8" fill="#E2E2F0" style="stroke:#181818;stroke-width:0.5;"/><path d="M44.483,63.797 L44.483,90.797 M31.483,71.797 L57.483,71.797 M44.483,90.797 L31.483,105.797 M44.483,90.797 L57.483,105.797" style="stroke:#181818;stroke-width:0.5;" fill="none"/><rect x="265.392" y="92.297" width="47.53" height="30.297" fill="#E2E2F0" style="stroke:#181818;stroke-width:0.5;" rx="2.5" ry="2.5"/><text x="272.392" y="112.292" fill="#000" font-size="14" textLength="33.53">Gate</text><rect x="498.219" y="92.297" width="100.775" height="30.297" fill="#E2E2F0" style="stroke:#181818;stroke-width:0.5;" rx="2.5" ry="2.5"/><text x="505.219" y="112.292" fill="#000" font-size="14" textLength="86.775">Mock Target</text><rect x="608.994" y="92.297" width="99.039" height="30.297" fill="#E2E2F0" style="stroke:#181818;stroke-width:0.5;" rx="2.5" ry="2.5"/><text x="615.994" y="112.292" fill="#000" font-size="14" textLength="85.039">Error Server</text><rect x="718.033" y="92.297" width="78.62" height="30.297" fill="#E2E2F0" style="stroke:#181818;stroke-width:0.5;" rx="2.5" ry="2.5"/><text x="725.033" y="112.292" fill="#000" font-size="14" textLength="64.62">CNSS API</text><rect x="980.918" y="92.297" width="94.753" height="30.297" fill="#E2E2F0" style="stroke:#181818;stroke-width:0.5;" rx="2.5" ry="2.5"/><text x="987.918" y="112.292" fill="#000" font-size="14" textLength="80.753">PostgreSQL</text><rect x="1085.671" y="92.297" width="53.013" height="30.297" fill="#E2E2F0" style="stroke:#181818;stroke-width:0.5;" rx="2.5" ry="2.5"/><text x="1092.671" y="112.292" fill="#000" font-size="14" textLength="39.013">TProc</text><rect x="1276.14" y="92.297" width="139.583" height="30.297" fill="#E2E2F0" style="stroke:#181818;stroke-width:0.5;" rx="2.5" ry="2.5"/><text x="1283.14" y="112.292" fill="#000" font-size="14" textLength="125.583">Network Interface</text><text x="10" y="1209.245" fill="#000" font-size="14" textLength="62.966">End User</text><ellipse cx="44.483" cy="1221.047" rx="8" ry="8" fill="#E2E2F0" style="stroke:#181818;stroke-width:0.5;"/><path d="M44.483,1229.047 L44.483,1256.047 M31.483,1237.047 L57.483,1237.047 M44.483,1256.047 L31.483,1271.047 M44.483,1256.047 L57.483,1271.047" style="stroke:#181818;stroke-width:0.5;" fill="none"/><rect x="265.392" y="1196.25" width="47.53" height="30.297" fill="#E2E2F0" style="stroke:#181818;stroke-width:0.5;" rx="2.5" ry="2.5"/><text x="272.392" y="1216.245" fill="#000" font-size="14" textLength="33.53">Gate</text><rect x="498.219" y="1196.25" width="100.775" height="30.297" fill="#E2E2F0" style="stroke:#181818;stroke-width:0.5;" rx="2.5" ry="2.5"/><text x="505.219" y="1216.245" fill="#000" font-size="14" textLength="86.775">Mock Target</text><rect x="608.994" y="1196.25" width="99.039" height="30.297" fill="#E2E2F0" style="stroke:#181818;stroke-width:0.5;" rx="2.5" ry="2.5"/><text x="615.994" y="1216.245" fill="#000" font-size="14" textLength="85.039">Error Server</text><rect x="718.033" y="1196.25" width="78.62" height="30.297" fill="#E2E2F0" style="stroke:#181818;stroke-width:0.5;" rx="2.5" ry="2.5"/><text x="725.033" y="1216.245" fill="#000" font-size="14" textLength="64.62">CNSS API</text><rect x="980.918" y="1196.25" width="94.753" height="30.297" fill="#E2E2F0" style="stroke:#181818;stroke-width:0.5;" rx="2.5" ry="2.5"/><text x="987.918" y="1216.245" fill="#000" font-size="14" textLength="80.753">PostgreSQL</text><rect x="1085.671" y="1196.25" width="53.013" height="30.297" fill="#E2E2F0" style="stroke:#181818;stroke-width:0.5;" rx="2.5" ry="2.5"/><text x="1092.671" y="1216.245" fill="#000" font-size="14" textLength="39.013">TProc</text><rect x="1276.14" y="1196.25" width="139.583" height="30.297" fill="#E2E2F0" style="stroke:#181818;stroke-width:0.5;" rx="2.5" ry="2.5"/><text x="1283.14" y="1216.245" fill="#000" font-size="14" textLength="125.583">Network Interface</text><rect x="10" y="152.16" width="1405.723" height="3" fill="#EEE" style="stroke:#EEE;stroke-width:1;"/><line x1="10" y1="152.16" x2="1415.723" y2="152.16" style="stroke:#000;stroke-width:1;"/><line x1="10" y1="155.16" x2="1415.723" y2="155.16" style="stroke:#000;stroke-width:1;"/><rect x="589.201" y="141.594" width="247.321" height="23.133" fill="#EEE" style="stroke:#000;stroke-width:2;"/><text x="595.201" y="157.661" fill="#000" font-size="13" textLength="228.795" font-weight="700">Packet Capture and Processing</text><polygon points="1128.177,191.859,1118.177,195.859,1128.177,199.859,1124.177,195.859" fill="#181818" style="stroke:#181818;stroke-width:1;stroke-linejoin:miter;stroke-miterlimit:10;"/><line x1="1122.177" y1="195.859" x2="1344.931" y2="195.859" style="stroke:#181818;stroke-width:1;"/><text x="1134.177" y="190.793" fill="#000" font-size="13" textLength="81.44">Live packets</text><line x1="1117.177" y1="224.992" x2="1159.177" y2="224.992" style="stroke:#181818;stroke-width:1;"/><line x1="1159.177" y1="224.992" x2="1159.177" y2="237.992" style="stroke:#181818;stroke-width:1;"/><line x1="1118.177" y1="237.992" x2="1159.177" y2="237.992" style="stroke:#181818;stroke-width:1;"/><polygon points="1128.177,233.992,1118.177,237.992,1128.177,241.992,1124.177,237.992" fill="#181818" style="stroke:#181818;stroke-width:1;stroke-linejoin:miter;stroke-miterlimit:10;"/><text x="1124.177" y="219.926" fill="#000" font-size="13" textLength="130.965">Sniff packet (Scapy)</text><line x1="1117.177" y1="267.125" x2="1159.177" y2="267.125" style="stroke:#181818;stroke-width:1;"/><line x1="1159.177" y1="267.125" x2="1159.177" y2="280.125" style="stroke:#181818;stroke-width:1;"/><line x1="1118.177" y1="280.125" x2="1159.177" y2="280.125" style="stroke:#181818;stroke-width:1;"/><polygon points="1128.177,276.125,1118.177,280.125,1128.177,284.125,1124.177,280.125" fill="#181818" style="stroke:#181818;stroke-width:1;stroke-linejoin:miter;stroke-miterlimit:10;"/><text x="1124.177" y="262.059" fill="#000" font-size="13" textLength="214.754">Classify protocol (TCP/UDP/ICMP)</text><line x1="1117.177" y1="309.258" x2="1159.177" y2="309.258" style="stroke:#181818;stroke-width:1;"/><line x1="1159.177" y1="309.258" x2="1159.177" y2="322.258" style="stroke:#181818;stroke-width:1;"/><line x1="1118.177" y1="322.258" x2="1159.177" y2="322.258" style="stroke:#181818;stroke-width:1;"/><polygon points="1128.177,318.258,1118.177,322.258,1128.177,326.258,1124.177,322.258" fill="#181818" style="stroke:#181818;stroke-width:1;stroke-linejoin:miter;stroke-miterlimit:10;"/><text x="1124.177" y="304.192" fill="#000" font-size="13" textLength="182.146">Determine direction (in/out)</text><line x1="1117.177" y1="351.391" x2="1159.177" y2="351.391" style="stroke:#181818;stroke-width:1;"/><line x1="1159.177" y1="351.391" x2="1159.177" y2="364.391" style="stroke:#181818;stroke-width:1;"/><line x1="1112.177" y1="364.391" x2="1159.177" y2="364.391" style="stroke:#181818;stroke-width:1;"/><polygon points="1122.177,360.391,1112.177,364.391,1122.177,368.391,1118.177,364.391" fill="#181818" style="stroke:#181818;stroke-width:1;stroke-linejoin:miter;stroke-miterlimit:10;"/><text x="1124.177" y="346.325" fill="#000" font-size="13" textLength="200.23">Update IPTracker (per-IP stats)</text><rect x="10" y="392.957" width="1405.723" height="3" fill="#EEE" style="stroke:#EEE;stroke-width:1;"/><line x1="10" y1="392.957" x2="1415.723" y2="392.957" style="stroke:#000;stroke-width:1;"/><line x1="10" y1="395.957" x2="1415.723" y2="395.957" style="stroke:#000;stroke-width:1;"/><rect x="618.318" y="382.391" width="189.087" height="23.133" fill="#EEE" style="stroke:#000;stroke-width:2;"/><text x="624.318" y="398.458" fill="#000" font-size="13" textLength="170.562" font-weight="700">Statistics Transmission</text><path d="M736.343,419.523 L812.967,419.523 L812.967,426.656 L802.967,436.656 L736.343,436.656 L736.343,419.523" style="stroke:#000;stroke-width:1.5;" fill="#EEE"/><rect x="736.343" y="419.523" width="592.701" height="227.93" fill="none" style="stroke:#000;stroke-width:1.5;"/><text x="751.343" y="432.59" fill="#000" font-size="13" textLength="31.624" font-weight="700">loop</text><text x="827.967" y="431.734" fill="#000" font-size="11" textLength="224.641" font-weight="700">[Every delay seconds (default 0.5s)]</text><line x1="1112.177" y1="467.789" x2="1154.177" y2="467.789" style="stroke:#181818;stroke-width:1;"/><line x1="1154.177" y1="467.789" x2="1154.177" y2="480.789" style="stroke:#181818;stroke-width:1;"/><line x1="1113.177" y1="480.789" x2="1154.177" y2="480.789" style="stroke:#181818;stroke-width:1;"/><polygon points="1123.177,476.789,1113.177,480.789,1123.177,484.789,1119.177,480.789" fill="#181818" style="stroke:#181818;stroke-width:1;stroke-linejoin:miter;stroke-miterlimit:10;"/><text x="1119.177" y="462.723" fill="#000" font-size="13" textLength="181.867">Build statistics batch (JSON)</text><polygon points="773.343,505.922,763.343,509.922,773.343,513.922,769.343,509.922" fill="#181818" style="stroke:#181818;stroke-width:1;stroke-linejoin:miter;stroke-miterlimit:10;"/><line x1="767.343" y1="509.922" x2="1111.177" y2="509.922" style="stroke:#181818;stroke-width:1;"/><text x="779.343" y="504.856" fill="#000" font-size="13" textLength="108.189">HTTP POST /load</text><line x1="762.343" y1="539.055" x2="804.343" y2="539.055" style="stroke:#181818;stroke-width:1;"/><line x1="804.343" y1="539.055" x2="804.343" y2="552.055" style="stroke:#181818;stroke-width:1;"/><line x1="763.343" y1="552.055" x2="804.343" y2="552.055" style="stroke:#181818;stroke-width:1;"/><polygon points="773.343,548.055,763.343,552.055,773.343,556.055,769.343,552.055" fill="#181818" style="stroke:#181818;stroke-width:1;stroke-linejoin:miter;stroke-miterlimit:10;"/><text x="769.343" y="533.989" fill="#000" font-size="13" textLength="251.951">Validate against NetworkStats schema</text><polygon points="1011.294,577.188,1021.294,581.188,1011.294,585.188,1015.294,581.188" fill="#181818" style="stroke:#181818;stroke-width:1;stroke-linejoin:miter;stroke-miterlimit:10;"/><line x1="762.343" y1="581.188" x2="1017.294" y2="581.188" style="stroke:#181818;stroke-width:1;"/><text x="769.343" y="576.122" fill="#000" font-size="13" textLength="120.669">Store/update stats</text><polygon points="773.343,606.32,763.343,610.32,773.343,614.32,769.343,610.32" fill="#181818" style="stroke:#181818;stroke-width:1;stroke-linejoin:miter;stroke-miterlimit:10;"/><line x1="767.343" y1="610.32" x2="1022.294" y2="610.32" style="stroke:#181818;stroke-width:1;stroke-dasharray:2,2;"/><text x="779.343" y="605.254" fill="#000" font-size="13" textLength="94.758">Acknowledged</text><polygon points="1100.177,635.453,1110.177,639.453,1100.177,643.453,1104.177,639.453" fill="#181818" style="stroke:#181818;stroke-width:1;stroke-linejoin:miter;stroke-miterlimit:10;"/><line x1="762.343" y1="639.453" x2="1106.177" y2="639.453" style="stroke:#181818;stroke-width:1;stroke-dasharray:2,2;"/><text x="769.343" y="634.387" fill="#000" font-size="13" textLength="85.332">HTTP 200 OK</text><rect x="10" y="682.02" width="1405.723" height="3" fill="#EEE" style="stroke:#EEE;stroke-width:1;"/><line x1="10" y1="682.02" x2="1415.723" y2="682.02" style="stroke:#000;stroke-width:1;"/><line x1="10" y1="685.02" x2="1415.723" y2="685.02" style="stroke:#000;stroke-width:1;"/><rect x="633.343" y="671.453" width="159.038" height="23.133" fill="#EEE" style="stroke:#000;stroke-width:2;"/><text x="639.343" y="687.52" fill="#000" font-size="13" textLength="140.512" font-weight="700">Dashboard Refresh</text><polygon points="740.343,721.719,750.343,725.719,740.343,729.719,744.343,725.719" fill="#181818" style="stroke:#181818;stroke-width:1;stroke-linejoin:miter;stroke-miterlimit:10;"/><line x1="44.483" y1="725.719" x2="746.343" y2="725.719" style="stroke:#181818;stroke-width:1;"/><text x="51.483" y="720.653" fill="#000" font-size="13" textLength="85.503">GET /packets</text><polygon points="1011.294,750.852,1021.294,754.852,1011.294,758.852,1015.294,754.852" fill="#181818" style="stroke:#181818;stroke-width:1;stroke-linejoin:miter;stroke-miterlimit:10;"/><line x1="762.343" y1="754.852" x2="1017.294" y2="754.852" style="stroke:#181818;stroke-width:1;"/><text x="769.343" y="749.786" fill="#000" font-size="13" textLength="131.289">Retrieve latest stats</text><polygon points="773.343,779.984,763.343,783.984,773.343,787.984,769.343,783.984" fill="#181818" style="stroke:#181818;stroke-width:1;stroke-linejoin:miter;stroke-miterlimit:10;"/><line x1="767.343" y1="783.984" x2="1022.294" y2="783.984" style="stroke:#181818;stroke-width:1;stroke-dasharray:2,2;"/><text x="779.343" y="778.918" fill="#000" font-size="13" textLength="79.79">Return stats</text><polygon points="55.483,809.117,45.483,813.117,55.483,817.117,51.483,813.117" fill="#181818" style="stroke:#181818;stroke-width:1;stroke-linejoin:miter;stroke-miterlimit:10;"/><line x1="49.483" y1="813.117" x2="751.343" y2="813.117" style="stroke:#181818;stroke-width:1;stroke-dasharray:2,2;"/><text x="61.483" y="808.051" fill="#000" font-size="13" textLength="95.507">JSON response</text><rect x="10" y="841.684" width="1405.723" height="3" fill="#EEE" style="stroke:#EEE;stroke-width:1;"/><line x1="10" y1="841.684" x2="1415.723" y2="841.684" style="stroke:#000;stroke-width:1;"/><line x1="10" y1="844.684" x2="1415.723" y2="844.684" style="stroke:#000;stroke-width:1;"/><rect x="607.866" y="831.117" width="209.99" height="23.133" fill="#EEE" style="stroke:#000;stroke-width:2;"/><text x="613.866" y="847.184" fill="#000" font-size="13" textLength="191.464" font-weight="700">Protected Access via Gate</text><polygon points="272.157,881.383,282.157,885.383,272.157,889.383,276.157,885.383" fill="#181818" style="stroke:#181818;stroke-width:1;stroke-linejoin:miter;stroke-miterlimit:10;"/><line x1="44.483" y1="885.383" x2="278.157" y2="885.383" style="stroke:#181818;stroke-width:1;"/><text x="51.483" y="880.317" fill="#000" font-size="13" textLength="215.674">HTTP request to protected target</text><line x1="294.157" y1="914.516" x2="336.157" y2="914.516" style="stroke:#181818;stroke-width:1;"/><line x1="336.157" y1="914.516" x2="336.157" y2="927.516" style="stroke:#181818;stroke-width:1;"/><line x1="295.157" y1="927.516" x2="336.157" y2="927.516" style="stroke:#181818;stroke-width:1;"/><polygon points="305.157,923.516,295.157,927.516,305.157,931.516,301.157,927.516" fill="#181818" style="stroke:#181818;stroke-width:1;stroke-linejoin:miter;stroke-miterlimit:10;"/><text x="301.157" y="909.45" fill="#000" font-size="13" textLength="240.449">Check client IP against BLOCKED_IPS</text><path d="M28.483,939.516 L92.926,939.516 L92.926,946.648 L82.926,956.648 L28.483,956.648 L28.483,939.516" style="stroke:#000;stroke-width:1.5;" fill="#EEE"/><rect x="28.483" y="939.516" width="651.031" height="232.734" fill="none" style="stroke:#000;stroke-width:1.5;"/><text x="43.483" y="952.583" fill="#000" font-size="13" textLength="19.443" font-weight="700">alt</text><text x="107.926" y="951.726" fill="#000" font-size="11" textLength="88.204" font-weight="700">[IP is allowed]</text><line x1="28.483" y1="1065.047" x2="679.514" y2="1065.047" style="stroke:#000;stroke-width:1;stroke-dasharray:2,2;"/><text x="33.483" y="1077.257" fill="#000" font-size="11" textLength="88.559" font-weight="700">[IP is blocked]</text><polygon points="531.606,983.781,541.606,987.781,531.606,991.781,535.606,987.781" fill="#181818" style="stroke:#181818;stroke-width:1;stroke-linejoin:miter;stroke-miterlimit:10;"/><line x1="294.157" y1="987.781" x2="537.606" y2="987.781" style="stroke:#181818;stroke-width:1;"/><text x="301.157" y="982.715" fill="#000" font-size="13" textLength="90.359">Proxy request</text><polygon points="305.157,1012.914,295.157,1016.914,305.157,1020.914,301.157,1016.914" fill="#181818" style="stroke:#181818;stroke-width:1;stroke-linejoin:miter;stroke-miterlimit:10;"/><line x1="299.157" y1="1016.914" x2="542.606" y2="1016.914" style="stroke:#181818;stroke-width:1;stroke-dasharray:2,2;"/><text x="311.157" y="1011.848" fill="#000" font-size="13" textLength="63.02">Response</text><polygon points="55.483,1042.047,45.483,1046.047,55.483,1050.047,51.483,1046.047" fill="#181818" style="stroke:#181818;stroke-width:1;stroke-linejoin:miter;stroke-miterlimit:10;"/><line x1="49.483" y1="1046.047" x2="283.157" y2="1046.047" style="stroke:#181818;stroke-width:1;stroke-dasharray:2,2;"/><text x="61.483" y="1040.981" fill="#000" font-size="13" textLength="116.435">Forward response</text><polygon points="641.514,1101.984,651.514,1105.984,641.514,1109.984,645.514,1105.984" fill="#181818" style="stroke:#181818;stroke-width:1;stroke-linejoin:miter;stroke-miterlimit:10;"/><line x1="294.157" y1="1105.984" x2="647.514" y2="1105.984" style="stroke:#181818;stroke-width:1;"/><text x="301.157" y="1100.918" fill="#000" font-size="13" textLength="151.557">Forward to error server</text><polygon points="305.157,1131.117,295.157,1135.117,305.157,1139.117,301.157,1135.117" fill="#181818" style="stroke:#181818;stroke-width:1;stroke-linejoin:miter;stroke-miterlimit:10;"/><line x1="299.157" y1="1135.117" x2="652.514" y2="1135.117" style="stroke:#181818;stroke-width:1;stroke-dasharray:2,2;"/><text x="311.157" y="1130.051" fill="#000" font-size="13" textLength="61.414">403 page</text><polygon points="55.483,1160.25,45.483,1164.25,55.483,1168.25,51.483,1164.25" fill="#181818" style="stroke:#181818;stroke-width:1;stroke-linejoin:miter;stroke-miterlimit:10;"/><line x1="49.483" y1="1164.25" x2="283.157" y2="1164.25" style="stroke:#181818;stroke-width:1;stroke-dasharray:2,2;"/><text x="61.483" y="1159.184" fill="#000" font-size="13" textLength="129.816">Access denied page</text><?plantuml-src PLHDSzem4BtpAtPow903XUd7XHawam19QTBWnawl7I6jZGOXkP8CvTzt9TjW4mwChFrwx-rglVGA8SM_5MgEi92ii6mF8tYM1uJCiZoN73x07UVe73meSuJ1W75lBDmijO0tX_O6c8EA3eEIMI-vB9dsSFF8F4PJGOU-wQVXEyYOBT173n-FVP-bjLGaHNjeAc2uwFlCNz8Kxf9LjBDIzgs9SRwmcFvwZdQnwPkpn1fUbo_xbXVqHsDtiD8URSvuJKCJmi5i1WdZE_GmPwMlB08Z5K8cqaVg0cQp0Jd2w1jbdTOobZ701TdaWRG8zNpPkgHQvddZ0yEKi_9qsp7F5QF4-GbAQxpXHi4mcoVZjqKoNir_9btN1HBSlTG8GbgaOaR3KEgngNpNxQqK0SGgeVPIKGl34krebO3ppBlRWS0kqC0u9ODqf8yB8w7TNX8aIavSbJ4bBAb59n2es0aSSgE5Ww70d5NAm-JZLqeAzBj0kA-a4h5UatR3FD_2y4UwVkdwKakdy3tB4aZMQGPZPPY8vZF2qFHuKSfpm6-cPAJ82YQryz3qCz1muFWMzwmR93RK1Pfe75UrD568VXqQdl0jDZ1gozpndJP7XQB06bH7kCOz5cWuHngV9XDOFrrx1nAeHTHwmTnsOvWLy8gvHRSDAeV7TQRtk2GbtirKoD7XyuhUIgJXKsGa2MfANNnTAkHTMTquzMcq50A4AOG60Q4gZNOukA8G7mTDAOqUYdPb72I3i0cwDC92Q0InOVKGFc_YWDUXpJeu9uyB9FnTWkTRf1N2bKHwi3IxRQlldzVpf-NYpof9QK-fQ9Eq6nHjhgPDRQAwoZH0_dTgWVIxtW290ncFKOeQmMkhmbKpEp5rfRDu3yOUGsFF-g5os03SA5g9Lm3Zmhk4aKJnXfvOs8bzfFLo35UrpmNdbybdsYx5EvoNY2kOJUC4QaczYA5XE3kX8U0_?></g></svg>